<svg width="1440" height="7200" viewBox="0 0 1440 7200" fill="none" xmlns="http://www.w3.org/2000/svg">
<g clip-path="url(#clip0_47_243)">
<rect width="1440" height="800" fill="white"/>
<g clip-path="url(#clip1_47_243)">
<path d="M1440.6 0H0.599976V800H1440.6V0Z" fill="white"/>
<path d="M0.599976 43.3C0.599976 43.3 11.4 35.2 14.5 22C17.6 8.8 29.1 0 29.1 0" stroke="#2F75FD" stroke-opacity="0.03" stroke-width="2" stroke-miterlimit="10"/>
<path d="M0.599976 79.3C0.599976 79.3 37.6 67.9 47.4 39.2C56.8 11.3 94.8 0 94.8 0" stroke="#2F75FD" stroke-opacity="0.03" stroke-width="2" stroke-miterlimit="10"/>
<path d="M0.599976 115.3C0.599976 115.3 63.8 100.6 80.2 56.5C96 14 160.5 0 160.5 0" stroke="#2F75FD" stroke-opacity="0.03" stroke-width="2" stroke-miterlimit="10"/>
<path d="M0.599976 151.4C0.599976 151.4 89.9 133.3 113.1 73.8C135.2 16.6 226.1 0 226.1 0" stroke="#2F75FD" stroke-opacity="0.03" stroke-width="2" stroke-miterlimit="10"/>
<path d="M0.599976 187.4C0.599976 187.4 116.1 166 145.9 91.1C174.4 19.3 291.8 0 291.8 0" stroke="#2F75FD" stroke-opacity="0.03" stroke-width="2" stroke-miterlimit="10"/>
<path d="M0.599976 223.4C0.599976 223.4 142.3 198.7 178.8 108.3C213.6 22 357.5 0 357.5 0" stroke="#2F75FD" stroke-opacity="0.03" stroke-width="2" stroke-miterlimit="10"/>
<path d="M0.599976 259.5C0.599976 259.5 168.4 231.4 211.6 125.7C252.8 24.6 423.2 0 423.2 0" stroke="#2F75FD" stroke-opacity="0.03" stroke-width="2" stroke-miterlimit="10"/>
<path d="M0.599976 295.5C0.599976 295.5 194.6 264.1 244.5 142.9C292 27.3 488.9 0 488.9 0" stroke="#2F75FD" stroke-opacity="0.03" stroke-width="2" stroke-miterlimit="10"/>
<path d="M0.599976 331.5C0.599976 331.5 220.8 296.8 277.4 160.2C331.2 30 554.5 0 554.5 0" stroke="#2F75FD" stroke-opacity="0.03" stroke-width="2" stroke-miterlimit="10"/>
<path d="M0.599976 367.6C0.599976 367.6 246.9 329.6 310.2 177.5C370.5 32.6 620.2 0 620.2 0" stroke="#2F75FD" stroke-opacity="0.03" stroke-width="2" stroke-miterlimit="10"/>
<path d="M0.599976 403.6C0.599976 403.6 273.1 362.2 343.1 194.8C409.7 35.3 685.9 0 685.9 0" stroke="#2F75FD" stroke-opacity="0.03" stroke-width="2" stroke-miterlimit="10"/>
<path d="M0.599976 439.6C0.599976 439.6 299.3 394.9 375.9 212C448.9 38 751.6 0 751.6 0" stroke="#2F75FD" stroke-opacity="0.03" stroke-width="2" stroke-miterlimit="10"/>
<path d="M0.599976 475.7C0.599976 475.7 325.4 427.7 408.8 229.4C488.1 40.6 817.2 0 817.2 0" stroke="#2F75FD" stroke-opacity="0.03" stroke-width="2" stroke-miterlimit="10"/>
<path d="M0.599976 511.7C0.599976 511.7 351.6 460.4 441.6 246.7C527.3 43.3 882.9 0 882.9 0" stroke="#2F75FD" stroke-opacity="0.03" stroke-width="2" stroke-miterlimit="10"/>
<path d="M0.599976 547.8C0.599976 547.8 377.8 493.1 474.5 264C566.5 46 948.6 0 948.6 0" stroke="#2F75FD" stroke-opacity="0.03" stroke-width="2" stroke-miterlimit="10"/>
<path d="M0.599976 583.8C0.599976 583.8 403.9 525.8 507.3 281.3C605.7 48.6 1014.3 0 1014.3 0" stroke="#2F75FD" stroke-opacity="0.03" stroke-width="2" stroke-miterlimit="10"/>
<path d="M0.599976 619.8C0.599976 619.8 430.1 558.5 540.2 298.5C644.9 51.3 1080 0 1080 0" stroke="#2F75FD" stroke-opacity="0.03" stroke-width="2" stroke-miterlimit="10"/>
<path d="M0.599976 655.9C0.599976 655.9 456.3 591.2 573.1 315.9C684.1 54 1145.6 0 1145.6 0" stroke="#2F75FD" stroke-opacity="0.03" stroke-width="2" stroke-miterlimit="10"/>
<path d="M0.599976 691.9C0.599976 691.9 482.4 623.9 605.9 333.1C723.3 56.6 1211.3 0 1211.3 0" stroke="#2F75FD" stroke-opacity="0.03" stroke-width="2" stroke-miterlimit="10"/>
<path d="M0.599976 727.9C0.599976 727.9 508.6 656.6 638.8 350.4C762.5 59.3 1277 0 1277 0" stroke="#2F75FD" stroke-opacity="0.03" stroke-width="2" stroke-miterlimit="10"/>
<path d="M0.599976 764C0.599976 764 534.8 689.4 671.6 367.7C801.7 62 1342.7 0 1342.7 0" stroke="#2F75FD" stroke-opacity="0.03" stroke-width="2" stroke-miterlimit="10"/>
<path d="M0.599976 800C0.599976 800 560.9 722 704.5 385C840.9 64.6 1408.3 0 1408.3 0" stroke="#2F75FD" stroke-opacity="0.03" stroke-width="2" stroke-miterlimit="10"/>
<path d="M1436.9 756.7C1436.9 756.7 1426.1 764.8 1423 778C1419.9 791.3 1408.4 799.9 1408.4 799.9" stroke="#2F75FD" stroke-opacity="0.03" stroke-width="2" stroke-miterlimit="10"/>
<path d="M1436.9 720.7C1436.9 720.7 1399.9 732.1 1390.1 760.8C1380.7 788.7 1342.7 800 1342.7 800" stroke="#2F75FD" stroke-opacity="0.03" stroke-width="2" stroke-miterlimit="10"/>
<path d="M1436.9 684.7C1436.9 684.7 1373.7 699.4 1357.3 743.5C1341.4 786 1277 800 1277 800" stroke="#2F75FD" stroke-opacity="0.03" stroke-width="2" stroke-miterlimit="10"/>
<path d="M1436.9 648.6C1436.9 648.6 1347.6 666.7 1324.4 726.2C1302.3 783.3 1211.3 800 1211.3 800" stroke="#2F75FD" stroke-opacity="0.03" stroke-width="2" stroke-miterlimit="10"/>
<path d="M1436.9 612.6C1436.9 612.6 1321.4 634 1291.6 708.9C1263.1 780.7 1145.7 800 1145.7 800" stroke="#2F75FD" stroke-opacity="0.03" stroke-width="2" stroke-miterlimit="10"/>
<path d="M1436.9 576.5C1436.9 576.5 1295.2 601.2 1258.7 691.6C1223.8 778 1080 800 1080 800" stroke="#2F75FD" stroke-opacity="0.03" stroke-width="2" stroke-miterlimit="10"/>
<path d="M1436.9 540.5C1436.9 540.5 1269.1 568.6 1225.9 674.3C1184.7 775.3 1014.4 800 1014.4 800" stroke="#2F75FD" stroke-opacity="0.03" stroke-width="2" stroke-miterlimit="10"/>
<path d="M1436.9 504.5C1436.9 504.5 1242.9 535.9 1193 657.1C1145.4 772.7 948.6 800 948.6 800" stroke="#2F75FD" stroke-opacity="0.03" stroke-width="2" stroke-miterlimit="10"/>
<path d="M1436.9 468.4C1436.9 468.4 1216.7 503.1 1160.1 639.7C1106.2 770 882.9 800 882.9 800" stroke="#2F75FD" stroke-opacity="0.03" stroke-width="2" stroke-miterlimit="10"/>
<path d="M1436.9 432.4C1436.9 432.4 1190.6 470.4 1127.3 622.5C1067 767.3 817.2 800 817.2 800" stroke="#2F75FD" stroke-opacity="0.03" stroke-width="2" stroke-miterlimit="10"/>
<path d="M1436.9 396.4C1436.9 396.4 1164.4 437.8 1094.4 605.2C1027.8 764.7 751.6 800 751.6 800" stroke="#2F75FD" stroke-opacity="0.03" stroke-width="2" stroke-miterlimit="10"/>
<path d="M1436.9 360.3C1436.9 360.3 1138.2 405 1061.6 587.9C988.6 762 685.9 800 685.9 800" stroke="#2F75FD" stroke-opacity="0.03" stroke-width="2" stroke-miterlimit="10"/>
<path d="M1436.9 324.3C1436.9 324.3 1112.1 372.3 1028.7 570.6C949.4 759.4 620.2 800 620.2 800" stroke="#2F75FD" stroke-opacity="0.03" stroke-width="2" stroke-miterlimit="10"/>
<path d="M1436.9 288.3C1436.9 288.3 1085.9 339.6 995.9 553.3C910.2 756.7 554.5 800 554.5 800" stroke="#2F75FD" stroke-opacity="0.03" stroke-width="2" stroke-miterlimit="10"/>
<path d="M1436.9 252.2C1436.9 252.2 1059.7 306.9 963 536C871 754 488.9 800 488.9 800" stroke="#2F75FD" stroke-opacity="0.03" stroke-width="2" stroke-miterlimit="10"/>
<path d="M1436.9 216.2C1436.9 216.2 1033.6 274.2 930.2 518.7C831.8 751.4 423.2 800 423.2 800" stroke="#2F75FD" stroke-opacity="0.03" stroke-width="2" stroke-miterlimit="10"/>
<path d="M1436.9 180.2C1436.9 180.2 1007.4 241.5 897.3 501.5C792.6 748.7 357.5 800 357.5 800" stroke="#2F75FD" stroke-opacity="0.03" stroke-width="2" stroke-miterlimit="10"/>
<path d="M1436.9 144.1C1436.9 144.1 981.2 208.8 864.4 484.1C753.4 746 291.8 800 291.8 800" stroke="#2F75FD" stroke-opacity="0.03" stroke-width="2" stroke-miterlimit="10"/>
<path d="M1436.9 108.1C1436.9 108.1 955.1 176.1 831.6 466.9C714.2 743.4 226.1 800 226.1 800" stroke="#2F75FD" stroke-opacity="0.03" stroke-width="2" stroke-miterlimit="10"/>
<path d="M1436.9 72.1C1436.9 72.1 928.9 143.4 798.7 449.6C675 740.7 160.5 800 160.5 800" stroke="#2F75FD" stroke-opacity="0.03" stroke-width="2" stroke-miterlimit="10"/>
<path d="M1436.9 36C1436.9 36 902.7 110.6 765.9 432.3C635.7 738 94.8 800 94.8 800" stroke="#2F75FD" stroke-opacity="0.03" stroke-width="2" stroke-miterlimit="10"/>
<path d="M1436.9 0C1436.9 0 876.6 78 733 415C596.5 735.4 29.1 800 29.1 800" stroke="#2F75FD" stroke-opacity="0.03" stroke-width="2" stroke-miterlimit="10"/>
</g>
</g>
<g clip-path="url(#clip2_47_243)">
<rect width="1440" height="800" transform="translate(0 800)" fill="white"/>
<g clip-path="url(#clip3_47_243)">
<path d="M1440.6 800H0.599976V1600H1440.6V800Z" fill="white"/>
<path d="M0.599976 843.3C0.599976 843.3 11.4 835.2 14.5 822C17.6 808.8 29.1 800 29.1 800" stroke="#2F75FD" stroke-opacity="0.03" stroke-width="2" stroke-miterlimit="10"/>
<path d="M0.599976 879.3C0.599976 879.3 37.6 867.9 47.4 839.2C56.8 811.3 94.8 800 94.8 800" stroke="#2F75FD" stroke-opacity="0.03" stroke-width="2" stroke-miterlimit="10"/>
<path d="M0.599976 915.3C0.599976 915.3 63.8 900.6 80.2 856.5C96 814 160.5 800 160.5 800" stroke="#2F75FD" stroke-opacity="0.03" stroke-width="2" stroke-miterlimit="10"/>
<path d="M0.599976 951.4C0.599976 951.4 89.9 933.3 113.1 873.8C135.2 816.6 226.1 800 226.1 800" stroke="#2F75FD" stroke-opacity="0.03" stroke-width="2" stroke-miterlimit="10"/>
<path d="M0.599976 987.4C0.599976 987.4 116.1 966 145.9 891.1C174.4 819.3 291.8 800 291.8 800" stroke="#2F75FD" stroke-opacity="0.03" stroke-width="2" stroke-miterlimit="10"/>
<path d="M0.599976 1023.4C0.599976 1023.4 142.3 998.7 178.8 908.3C213.6 822 357.5 800 357.5 800" stroke="#2F75FD" stroke-opacity="0.03" stroke-width="2" stroke-miterlimit="10"/>
<path d="M0.599976 1059.5C0.599976 1059.5 168.4 1031.4 211.6 925.7C252.8 824.6 423.2 800 423.2 800" stroke="#2F75FD" stroke-opacity="0.03" stroke-width="2" stroke-miterlimit="10"/>
<path d="M0.599976 1095.5C0.599976 1095.5 194.6 1064.1 244.5 942.9C292 827.3 488.9 800 488.9 800" stroke="#2F75FD" stroke-opacity="0.03" stroke-width="2" stroke-miterlimit="10"/>
<path d="M0.599976 1131.5C0.599976 1131.5 220.8 1096.8 277.4 960.2C331.2 830 554.5 800 554.5 800" stroke="#2F75FD" stroke-opacity="0.03" stroke-width="2" stroke-miterlimit="10"/>
<path d="M0.599976 1167.6C0.599976 1167.6 246.9 1129.6 310.2 977.5C370.5 832.6 620.2 800 620.2 800" stroke="#2F75FD" stroke-opacity="0.03" stroke-width="2" stroke-miterlimit="10"/>
<path d="M0.599976 1203.6C0.599976 1203.6 273.1 1162.2 343.1 994.8C409.7 835.3 685.9 800 685.9 800" stroke="#2F75FD" stroke-opacity="0.03" stroke-width="2" stroke-miterlimit="10"/>
<path d="M0.599976 1239.6C0.599976 1239.6 299.3 1194.9 375.9 1012C448.9 838 751.6 800 751.6 800" stroke="#2F75FD" stroke-opacity="0.03" stroke-width="2" stroke-miterlimit="10"/>
<path d="M0.599976 1275.7C0.599976 1275.7 325.4 1227.7 408.8 1029.4C488.1 840.6 817.2 800 817.2 800" stroke="#2F75FD" stroke-opacity="0.03" stroke-width="2" stroke-miterlimit="10"/>
<path d="M0.599976 1311.7C0.599976 1311.7 351.6 1260.4 441.6 1046.7C527.3 843.3 882.9 800 882.9 800" stroke="#2F75FD" stroke-opacity="0.03" stroke-width="2" stroke-miterlimit="10"/>
<path d="M0.599976 1347.8C0.599976 1347.8 377.8 1293.1 474.5 1064C566.5 846 948.6 800 948.6 800" stroke="#2F75FD" stroke-opacity="0.03" stroke-width="2" stroke-miterlimit="10"/>
<path d="M0.599976 1383.8C0.599976 1383.8 403.9 1325.8 507.3 1081.3C605.7 848.6 1014.3 800 1014.3 800" stroke="#2F75FD" stroke-opacity="0.03" stroke-width="2" stroke-miterlimit="10"/>
<path d="M0.599976 1419.8C0.599976 1419.8 430.1 1358.5 540.2 1098.5C644.9 851.3 1080 800 1080 800" stroke="#2F75FD" stroke-opacity="0.03" stroke-width="2" stroke-miterlimit="10"/>
<path d="M0.599976 1455.9C0.599976 1455.9 456.3 1391.2 573.1 1115.9C684.1 854 1145.6 800 1145.6 800" stroke="#2F75FD" stroke-opacity="0.03" stroke-width="2" stroke-miterlimit="10"/>
<path d="M0.599976 1491.9C0.599976 1491.9 482.4 1423.9 605.9 1133.1C723.3 856.6 1211.3 800 1211.3 800" stroke="#2F75FD" stroke-opacity="0.03" stroke-width="2" stroke-miterlimit="10"/>
<path d="M0.599976 1527.9C0.599976 1527.9 508.6 1456.6 638.8 1150.4C762.5 859.3 1277 800 1277 800" stroke="#2F75FD" stroke-opacity="0.03" stroke-width="2" stroke-miterlimit="10"/>
<path d="M0.599976 1564C0.599976 1564 534.8 1489.4 671.6 1167.7C801.7 862 1342.7 800 1342.7 800" stroke="#2F75FD" stroke-opacity="0.03" stroke-width="2" stroke-miterlimit="10"/>
<path d="M0.599976 1600C0.599976 1600 560.9 1522 704.5 1185C840.9 864.6 1408.3 800 1408.3 800" stroke="#2F75FD" stroke-opacity="0.03" stroke-width="2" stroke-miterlimit="10"/>
<path d="M1436.9 1556.7C1436.9 1556.7 1426.1 1564.8 1423 1578C1419.9 1591.3 1408.4 1599.9 1408.4 1599.9" stroke="#2F75FD" stroke-opacity="0.03" stroke-width="2" stroke-miterlimit="10"/>
<path d="M1436.9 1520.7C1436.9 1520.7 1399.9 1532.1 1390.1 1560.8C1380.7 1588.7 1342.7 1600 1342.7 1600" stroke="#2F75FD" stroke-opacity="0.03" stroke-width="2" stroke-miterlimit="10"/>
<path d="M1436.9 1484.7C1436.9 1484.7 1373.7 1499.4 1357.3 1543.5C1341.4 1586 1277 1600 1277 1600" stroke="#2F75FD" stroke-opacity="0.03" stroke-width="2" stroke-miterlimit="10"/>
<path d="M1436.9 1448.6C1436.9 1448.6 1347.6 1466.7 1324.4 1526.2C1302.3 1583.3 1211.3 1600 1211.3 1600" stroke="#2F75FD" stroke-opacity="0.03" stroke-width="2" stroke-miterlimit="10"/>
<path d="M1436.9 1412.6C1436.9 1412.6 1321.4 1434 1291.6 1508.9C1263.1 1580.7 1145.7 1600 1145.7 1600" stroke="#2F75FD" stroke-opacity="0.03" stroke-width="2" stroke-miterlimit="10"/>
<path d="M1436.9 1376.5C1436.9 1376.5 1295.2 1401.2 1258.7 1491.6C1223.8 1578 1080 1600 1080 1600" stroke="#2F75FD" stroke-opacity="0.03" stroke-width="2" stroke-miterlimit="10"/>
<path d="M1436.9 1340.5C1436.9 1340.5 1269.1 1368.6 1225.9 1474.3C1184.7 1575.3 1014.4 1600 1014.4 1600" stroke="#2F75FD" stroke-opacity="0.03" stroke-width="2" stroke-miterlimit="10"/>
<path d="M1436.9 1304.5C1436.9 1304.5 1242.9 1335.9 1193 1457.1C1145.4 1572.7 948.6 1600 948.6 1600" stroke="#2F75FD" stroke-opacity="0.03" stroke-width="2" stroke-miterlimit="10"/>
<path d="M1436.9 1268.4C1436.9 1268.4 1216.7 1303.1 1160.1 1439.7C1106.2 1570 882.9 1600 882.9 1600" stroke="#2F75FD" stroke-opacity="0.03" stroke-width="2" stroke-miterlimit="10"/>
<path d="M1436.9 1232.4C1436.9 1232.4 1190.6 1270.4 1127.3 1422.5C1067 1567.3 817.2 1600 817.2 1600" stroke="#2F75FD" stroke-opacity="0.03" stroke-width="2" stroke-miterlimit="10"/>
<path d="M1436.9 1196.4C1436.9 1196.4 1164.4 1237.8 1094.4 1405.2C1027.8 1564.7 751.6 1600 751.6 1600" stroke="#2F75FD" stroke-opacity="0.03" stroke-width="2" stroke-miterlimit="10"/>
<path d="M1436.9 1160.3C1436.9 1160.3 1138.2 1205 1061.6 1387.9C988.6 1562 685.9 1600 685.9 1600" stroke="#2F75FD" stroke-opacity="0.03" stroke-width="2" stroke-miterlimit="10"/>
<path d="M1436.9 1124.3C1436.9 1124.3 1112.1 1172.3 1028.7 1370.6C949.4 1559.4 620.2 1600 620.2 1600" stroke="#2F75FD" stroke-opacity="0.03" stroke-width="2" stroke-miterlimit="10"/>
<path d="M1436.9 1088.3C1436.9 1088.3 1085.9 1139.6 995.9 1353.3C910.2 1556.7 554.5 1600 554.5 1600" stroke="#2F75FD" stroke-opacity="0.03" stroke-width="2" stroke-miterlimit="10"/>
<path d="M1436.9 1052.2C1436.9 1052.2 1059.7 1106.9 963 1336C871 1554 488.9 1600 488.9 1600" stroke="#2F75FD" stroke-opacity="0.03" stroke-width="2" stroke-miterlimit="10"/>
<path d="M1436.9 1016.2C1436.9 1016.2 1033.6 1074.2 930.2 1318.7C831.8 1551.4 423.2 1600 423.2 1600" stroke="#2F75FD" stroke-opacity="0.03" stroke-width="2" stroke-miterlimit="10"/>
<path d="M1436.9 980.2C1436.9 980.2 1007.4 1041.5 897.3 1301.5C792.6 1548.7 357.5 1600 357.5 1600" stroke="#2F75FD" stroke-opacity="0.03" stroke-width="2" stroke-miterlimit="10"/>
<path d="M1436.9 944.1C1436.9 944.1 981.2 1008.8 864.4 1284.1C753.4 1546 291.8 1600 291.8 1600" stroke="#2F75FD" stroke-opacity="0.03" stroke-width="2" stroke-miterlimit="10"/>
<path d="M1436.9 908.1C1436.9 908.1 955.1 976.1 831.6 1266.9C714.2 1543.4 226.1 1600 226.1 1600" stroke="#2F75FD" stroke-opacity="0.03" stroke-width="2" stroke-miterlimit="10"/>
<path d="M1436.9 872.1C1436.9 872.1 928.9 943.4 798.7 1249.6C675 1540.7 160.5 1600 160.5 1600" stroke="#2F75FD" stroke-opacity="0.03" stroke-width="2" stroke-miterlimit="10"/>
<path d="M1436.9 836C1436.9 836 902.7 910.6 765.9 1232.3C635.7 1538 94.8 1600 94.8 1600" stroke="#2F75FD" stroke-opacity="0.03" stroke-width="2" stroke-miterlimit="10"/>
<path d="M1436.9 800C1436.9 800 876.6 878 733 1215C596.5 1535.4 29.1 1600 29.1 1600" stroke="#2F75FD" stroke-opacity="0.03" stroke-width="2" stroke-miterlimit="10"/>
</g>
</g>
<g clip-path="url(#clip4_47_243)">
<rect width="1440" height="800" transform="translate(0 1600)" fill="white"/>
<g clip-path="url(#clip5_47_243)">
<path d="M1440.6 1600H0.599976V2400H1440.6V1600Z" fill="white"/>
<path d="M0.599976 1643.3C0.599976 1643.3 11.4 1635.2 14.5 1622C17.6 1608.8 29.1 1600 29.1 1600" stroke="#2F75FD" stroke-opacity="0.03" stroke-width="2" stroke-miterlimit="10"/>
<path d="M0.599976 1679.3C0.599976 1679.3 37.6 1667.9 47.4 1639.2C56.8 1611.3 94.8 1600 94.8 1600" stroke="#2F75FD" stroke-opacity="0.03" stroke-width="2" stroke-miterlimit="10"/>
<path d="M0.599976 1715.3C0.599976 1715.3 63.8 1700.6 80.2 1656.5C96 1614 160.5 1600 160.5 1600" stroke="#2F75FD" stroke-opacity="0.03" stroke-width="2" stroke-miterlimit="10"/>
<path d="M0.599976 1751.4C0.599976 1751.4 89.9 1733.3 113.1 1673.8C135.2 1616.6 226.1 1600 226.1 1600" stroke="#2F75FD" stroke-opacity="0.03" stroke-width="2" stroke-miterlimit="10"/>
<path d="M0.599976 1787.4C0.599976 1787.4 116.1 1766 145.9 1691.1C174.4 1619.3 291.8 1600 291.8 1600" stroke="#2F75FD" stroke-opacity="0.03" stroke-width="2" stroke-miterlimit="10"/>
<path d="M0.599976 1823.4C0.599976 1823.4 142.3 1798.7 178.8 1708.3C213.6 1622 357.5 1600 357.5 1600" stroke="#2F75FD" stroke-opacity="0.03" stroke-width="2" stroke-miterlimit="10"/>
<path d="M0.599976 1859.5C0.599976 1859.5 168.4 1831.4 211.6 1725.7C252.8 1624.6 423.2 1600 423.2 1600" stroke="#2F75FD" stroke-opacity="0.03" stroke-width="2" stroke-miterlimit="10"/>
<path d="M0.599976 1895.5C0.599976 1895.5 194.6 1864.1 244.5 1742.9C292 1627.3 488.9 1600 488.9 1600" stroke="#2F75FD" stroke-opacity="0.03" stroke-width="2" stroke-miterlimit="10"/>
<path d="M0.599976 1931.5C0.599976 1931.5 220.8 1896.8 277.4 1760.2C331.2 1630 554.5 1600 554.5 1600" stroke="#2F75FD" stroke-opacity="0.03" stroke-width="2" stroke-miterlimit="10"/>
<path d="M0.599976 1967.6C0.599976 1967.6 246.9 1929.6 310.2 1777.5C370.5 1632.6 620.2 1600 620.2 1600" stroke="#2F75FD" stroke-opacity="0.03" stroke-width="2" stroke-miterlimit="10"/>
<path d="M0.599976 2003.6C0.599976 2003.6 273.1 1962.2 343.1 1794.8C409.7 1635.3 685.9 1600 685.9 1600" stroke="#2F75FD" stroke-opacity="0.03" stroke-width="2" stroke-miterlimit="10"/>
<path d="M0.599976 2039.6C0.599976 2039.6 299.3 1994.9 375.9 1812C448.9 1638 751.6 1600 751.6 1600" stroke="#2F75FD" stroke-opacity="0.03" stroke-width="2" stroke-miterlimit="10"/>
<path d="M0.599976 2075.7C0.599976 2075.7 325.4 2027.7 408.8 1829.4C488.1 1640.6 817.2 1600 817.2 1600" stroke="#2F75FD" stroke-opacity="0.03" stroke-width="2" stroke-miterlimit="10"/>
<path d="M0.599976 2111.7C0.599976 2111.7 351.6 2060.4 441.6 1846.7C527.3 1643.3 882.9 1600 882.9 1600" stroke="#2F75FD" stroke-opacity="0.03" stroke-width="2" stroke-miterlimit="10"/>
<path d="M0.599976 2147.8C0.599976 2147.8 377.8 2093.1 474.5 1864C566.5 1646 948.6 1600 948.6 1600" stroke="#2F75FD" stroke-opacity="0.03" stroke-width="2" stroke-miterlimit="10"/>
<path d="M0.599976 2183.8C0.599976 2183.8 403.9 2125.8 507.3 1881.3C605.7 1648.6 1014.3 1600 1014.3 1600" stroke="#2F75FD" stroke-opacity="0.03" stroke-width="2" stroke-miterlimit="10"/>
<path d="M0.599976 2219.8C0.599976 2219.8 430.1 2158.5 540.2 1898.5C644.9 1651.3 1080 1600 1080 1600" stroke="#2F75FD" stroke-opacity="0.03" stroke-width="2" stroke-miterlimit="10"/>
<path d="M0.599976 2255.9C0.599976 2255.9 456.3 2191.2 573.1 1915.9C684.1 1654 1145.6 1600 1145.6 1600" stroke="#2F75FD" stroke-opacity="0.03" stroke-width="2" stroke-miterlimit="10"/>
<path d="M0.599976 2291.9C0.599976 2291.9 482.4 2223.9 605.9 1933.1C723.3 1656.6 1211.3 1600 1211.3 1600" stroke="#2F75FD" stroke-opacity="0.03" stroke-width="2" stroke-miterlimit="10"/>
<path d="M0.599976 2327.9C0.599976 2327.9 508.6 2256.6 638.8 1950.4C762.5 1659.3 1277 1600 1277 1600" stroke="#2F75FD" stroke-opacity="0.03" stroke-width="2" stroke-miterlimit="10"/>
<path d="M0.599976 2364C0.599976 2364 534.8 2289.4 671.6 1967.7C801.7 1662 1342.7 1600 1342.7 1600" stroke="#2F75FD" stroke-opacity="0.03" stroke-width="2" stroke-miterlimit="10"/>
<path d="M0.599976 2400C0.599976 2400 560.9 2322 704.5 1985C840.9 1664.6 1408.3 1600 1408.3 1600" stroke="#2F75FD" stroke-opacity="0.03" stroke-width="2" stroke-miterlimit="10"/>
<path d="M1436.9 2356.7C1436.9 2356.7 1426.1 2364.8 1423 2378C1419.9 2391.3 1408.4 2399.9 1408.4 2399.9" stroke="#2F75FD" stroke-opacity="0.03" stroke-width="2" stroke-miterlimit="10"/>
<path d="M1436.9 2320.7C1436.9 2320.7 1399.9 2332.1 1390.1 2360.8C1380.7 2388.7 1342.7 2400 1342.7 2400" stroke="#2F75FD" stroke-opacity="0.03" stroke-width="2" stroke-miterlimit="10"/>
<path d="M1436.9 2284.7C1436.9 2284.7 1373.7 2299.4 1357.3 2343.5C1341.4 2386 1277 2400 1277 2400" stroke="#2F75FD" stroke-opacity="0.03" stroke-width="2" stroke-miterlimit="10"/>
<path d="M1436.9 2248.6C1436.9 2248.6 1347.6 2266.7 1324.4 2326.2C1302.3 2383.3 1211.3 2400 1211.3 2400" stroke="#2F75FD" stroke-opacity="0.03" stroke-width="2" stroke-miterlimit="10"/>
<path d="M1436.9 2212.6C1436.9 2212.6 1321.4 2234 1291.6 2308.9C1263.1 2380.7 1145.7 2400 1145.7 2400" stroke="#2F75FD" stroke-opacity="0.03" stroke-width="2" stroke-miterlimit="10"/>
<path d="M1436.9 2176.5C1436.9 2176.5 1295.2 2201.2 1258.7 2291.6C1223.8 2378 1080 2400 1080 2400" stroke="#2F75FD" stroke-opacity="0.03" stroke-width="2" stroke-miterlimit="10"/>
<path d="M1436.9 2140.5C1436.9 2140.5 1269.1 2168.6 1225.9 2274.3C1184.7 2375.3 1014.4 2400 1014.4 2400" stroke="#2F75FD" stroke-opacity="0.03" stroke-width="2" stroke-miterlimit="10"/>
<path d="M1436.9 2104.5C1436.9 2104.5 1242.9 2135.9 1193 2257.1C1145.4 2372.7 948.6 2400 948.6 2400" stroke="#2F75FD" stroke-opacity="0.03" stroke-width="2" stroke-miterlimit="10"/>
<path d="M1436.9 2068.4C1436.9 2068.4 1216.7 2103.1 1160.1 2239.7C1106.2 2370 882.9 2400 882.9 2400" stroke="#2F75FD" stroke-opacity="0.03" stroke-width="2" stroke-miterlimit="10"/>
<path d="M1436.9 2032.4C1436.9 2032.4 1190.6 2070.4 1127.3 2222.5C1067 2367.3 817.2 2400 817.2 2400" stroke="#2F75FD" stroke-opacity="0.03" stroke-width="2" stroke-miterlimit="10"/>
<path d="M1436.9 1996.4C1436.9 1996.4 1164.4 2037.8 1094.4 2205.2C1027.8 2364.7 751.6 2400 751.6 2400" stroke="#2F75FD" stroke-opacity="0.03" stroke-width="2" stroke-miterlimit="10"/>
<path d="M1436.9 1960.3C1436.9 1960.3 1138.2 2005 1061.6 2187.9C988.6 2362 685.9 2400 685.9 2400" stroke="#2F75FD" stroke-opacity="0.03" stroke-width="2" stroke-miterlimit="10"/>
<path d="M1436.9 1924.3C1436.9 1924.3 1112.1 1972.3 1028.7 2170.6C949.4 2359.4 620.2 2400 620.2 2400" stroke="#2F75FD" stroke-opacity="0.03" stroke-width="2" stroke-miterlimit="10"/>
<path d="M1436.9 1888.3C1436.9 1888.3 1085.9 1939.6 995.9 2153.3C910.2 2356.7 554.5 2400 554.5 2400" stroke="#2F75FD" stroke-opacity="0.03" stroke-width="2" stroke-miterlimit="10"/>
<path d="M1436.9 1852.2C1436.9 1852.2 1059.7 1906.9 963 2136C871 2354 488.9 2400 488.9 2400" stroke="#2F75FD" stroke-opacity="0.03" stroke-width="2" stroke-miterlimit="10"/>
<path d="M1436.9 1816.2C1436.9 1816.2 1033.6 1874.2 930.2 2118.7C831.8 2351.4 423.2 2400 423.2 2400" stroke="#2F75FD" stroke-opacity="0.03" stroke-width="2" stroke-miterlimit="10"/>
<path d="M1436.9 1780.2C1436.9 1780.2 1007.4 1841.5 897.3 2101.5C792.6 2348.7 357.5 2400 357.5 2400" stroke="#2F75FD" stroke-opacity="0.03" stroke-width="2" stroke-miterlimit="10"/>
<path d="M1436.9 1744.1C1436.9 1744.1 981.2 1808.8 864.4 2084.1C753.4 2346 291.8 2400 291.8 2400" stroke="#2F75FD" stroke-opacity="0.03" stroke-width="2" stroke-miterlimit="10"/>
<path d="M1436.9 1708.1C1436.9 1708.1 955.1 1776.1 831.6 2066.9C714.2 2343.4 226.1 2400 226.1 2400" stroke="#2F75FD" stroke-opacity="0.03" stroke-width="2" stroke-miterlimit="10"/>
<path d="M1436.9 1672.1C1436.9 1672.1 928.9 1743.4 798.7 2049.6C675 2340.7 160.5 2400 160.5 2400" stroke="#2F75FD" stroke-opacity="0.03" stroke-width="2" stroke-miterlimit="10"/>
<path d="M1436.9 1636C1436.9 1636 902.7 1710.6 765.9 2032.3C635.7 2338 94.8 2400 94.8 2400" stroke="#2F75FD" stroke-opacity="0.03" stroke-width="2" stroke-miterlimit="10"/>
<path d="M1436.9 1600C1436.9 1600 876.6 1678 733 2015C596.5 2335.4 29.1 2400 29.1 2400" stroke="#2F75FD" stroke-opacity="0.03" stroke-width="2" stroke-miterlimit="10"/>
</g>
</g>
<g clip-path="url(#clip6_47_243)">
<rect width="1440" height="800" transform="translate(0 2400)" fill="white"/>
<g clip-path="url(#clip7_47_243)">
<path d="M1440.6 2400H0.599976V3200H1440.6V2400Z" fill="white"/>
<path d="M0.599976 2443.3C0.599976 2443.3 11.4 2435.2 14.5 2422C17.6 2408.8 29.1 2400 29.1 2400" stroke="#2F75FD" stroke-opacity="0.03" stroke-width="2" stroke-miterlimit="10"/>
<path d="M0.599976 2479.3C0.599976 2479.3 37.6 2467.9 47.4 2439.2C56.8 2411.3 94.8 2400 94.8 2400" stroke="#2F75FD" stroke-opacity="0.03" stroke-width="2" stroke-miterlimit="10"/>
<path d="M0.599976 2515.3C0.599976 2515.3 63.8 2500.6 80.2 2456.5C96 2414 160.5 2400 160.5 2400" stroke="#2F75FD" stroke-opacity="0.03" stroke-width="2" stroke-miterlimit="10"/>
<path d="M0.599976 2551.4C0.599976 2551.4 89.9 2533.3 113.1 2473.8C135.2 2416.6 226.1 2400 226.1 2400" stroke="#2F75FD" stroke-opacity="0.03" stroke-width="2" stroke-miterlimit="10"/>
<path d="M0.599976 2587.4C0.599976 2587.4 116.1 2566 145.9 2491.1C174.4 2419.3 291.8 2400 291.8 2400" stroke="#2F75FD" stroke-opacity="0.03" stroke-width="2" stroke-miterlimit="10"/>
<path d="M0.599976 2623.4C0.599976 2623.4 142.3 2598.7 178.8 2508.3C213.6 2422 357.5 2400 357.5 2400" stroke="#2F75FD" stroke-opacity="0.03" stroke-width="2" stroke-miterlimit="10"/>
<path d="M0.599976 2659.5C0.599976 2659.5 168.4 2631.4 211.6 2525.7C252.8 2424.6 423.2 2400 423.2 2400" stroke="#2F75FD" stroke-opacity="0.03" stroke-width="2" stroke-miterlimit="10"/>
<path d="M0.599976 2695.5C0.599976 2695.5 194.6 2664.1 244.5 2542.9C292 2427.3 488.9 2400 488.9 2400" stroke="#2F75FD" stroke-opacity="0.03" stroke-width="2" stroke-miterlimit="10"/>
<path d="M0.599976 2731.5C0.599976 2731.5 220.8 2696.8 277.4 2560.2C331.2 2430 554.5 2400 554.5 2400" stroke="#2F75FD" stroke-opacity="0.03" stroke-width="2" stroke-miterlimit="10"/>
<path d="M0.599976 2767.6C0.599976 2767.6 246.9 2729.6 310.2 2577.5C370.5 2432.6 620.2 2400 620.2 2400" stroke="#2F75FD" stroke-opacity="0.03" stroke-width="2" stroke-miterlimit="10"/>
<path d="M0.599976 2803.6C0.599976 2803.6 273.1 2762.2 343.1 2594.8C409.7 2435.3 685.9 2400 685.9 2400" stroke="#2F75FD" stroke-opacity="0.03" stroke-width="2" stroke-miterlimit="10"/>
<path d="M0.599976 2839.6C0.599976 2839.6 299.3 2794.9 375.9 2612C448.9 2438 751.6 2400 751.6 2400" stroke="#2F75FD" stroke-opacity="0.03" stroke-width="2" stroke-miterlimit="10"/>
<path d="M0.599976 2875.7C0.599976 2875.7 325.4 2827.7 408.8 2629.4C488.1 2440.6 817.2 2400 817.2 2400" stroke="#2F75FD" stroke-opacity="0.03" stroke-width="2" stroke-miterlimit="10"/>
<path d="M0.599976 2911.7C0.599976 2911.7 351.6 2860.4 441.6 2646.7C527.3 2443.3 882.9 2400 882.9 2400" stroke="#2F75FD" stroke-opacity="0.03" stroke-width="2" stroke-miterlimit="10"/>
<path d="M0.599976 2947.8C0.599976 2947.8 377.8 2893.1 474.5 2664C566.5 2446 948.6 2400 948.6 2400" stroke="#2F75FD" stroke-opacity="0.03" stroke-width="2" stroke-miterlimit="10"/>
<path d="M0.599976 2983.8C0.599976 2983.8 403.9 2925.8 507.3 2681.3C605.7 2448.6 1014.3 2400 1014.3 2400" stroke="#2F75FD" stroke-opacity="0.03" stroke-width="2" stroke-miterlimit="10"/>
<path d="M0.599976 3019.8C0.599976 3019.8 430.1 2958.5 540.2 2698.5C644.9 2451.3 1080 2400 1080 2400" stroke="#2F75FD" stroke-opacity="0.03" stroke-width="2" stroke-miterlimit="10"/>
<path d="M0.599976 3055.9C0.599976 3055.9 456.3 2991.2 573.1 2715.9C684.1 2454 1145.6 2400 1145.6 2400" stroke="#2F75FD" stroke-opacity="0.03" stroke-width="2" stroke-miterlimit="10"/>
<path d="M0.599976 3091.9C0.599976 3091.9 482.4 3023.9 605.9 2733.1C723.3 2456.6 1211.3 2400 1211.3 2400" stroke="#2F75FD" stroke-opacity="0.03" stroke-width="2" stroke-miterlimit="10"/>
<path d="M0.599976 3127.9C0.599976 3127.9 508.6 3056.6 638.8 2750.4C762.5 2459.3 1277 2400 1277 2400" stroke="#2F75FD" stroke-opacity="0.03" stroke-width="2" stroke-miterlimit="10"/>
<path d="M0.599976 3164C0.599976 3164 534.8 3089.4 671.6 2767.7C801.7 2462 1342.7 2400 1342.7 2400" stroke="#2F75FD" stroke-opacity="0.03" stroke-width="2" stroke-miterlimit="10"/>
<path d="M0.599976 3200C0.599976 3200 560.9 3122 704.5 2785C840.9 2464.6 1408.3 2400 1408.3 2400" stroke="#2F75FD" stroke-opacity="0.03" stroke-width="2" stroke-miterlimit="10"/>
<path d="M1436.9 3156.7C1436.9 3156.7 1426.1 3164.8 1423 3178C1419.9 3191.3 1408.4 3199.9 1408.4 3199.9" stroke="#2F75FD" stroke-opacity="0.03" stroke-width="2" stroke-miterlimit="10"/>
<path d="M1436.9 3120.7C1436.9 3120.7 1399.9 3132.1 1390.1 3160.8C1380.7 3188.7 1342.7 3200 1342.7 3200" stroke="#2F75FD" stroke-opacity="0.03" stroke-width="2" stroke-miterlimit="10"/>
<path d="M1436.9 3084.7C1436.9 3084.7 1373.7 3099.4 1357.3 3143.5C1341.4 3186 1277 3200 1277 3200" stroke="#2F75FD" stroke-opacity="0.03" stroke-width="2" stroke-miterlimit="10"/>
<path d="M1436.9 3048.6C1436.9 3048.6 1347.6 3066.7 1324.4 3126.2C1302.3 3183.3 1211.3 3200 1211.3 3200" stroke="#2F75FD" stroke-opacity="0.03" stroke-width="2" stroke-miterlimit="10"/>
<path d="M1436.9 3012.6C1436.9 3012.6 1321.4 3034 1291.6 3108.9C1263.1 3180.7 1145.7 3200 1145.7 3200" stroke="#2F75FD" stroke-opacity="0.03" stroke-width="2" stroke-miterlimit="10"/>
<path d="M1436.9 2976.5C1436.9 2976.5 1295.2 3001.2 1258.7 3091.6C1223.8 3178 1080 3200 1080 3200" stroke="#2F75FD" stroke-opacity="0.03" stroke-width="2" stroke-miterlimit="10"/>
<path d="M1436.9 2940.5C1436.9 2940.5 1269.1 2968.6 1225.9 3074.3C1184.7 3175.3 1014.4 3200 1014.4 3200" stroke="#2F75FD" stroke-opacity="0.03" stroke-width="2" stroke-miterlimit="10"/>
<path d="M1436.9 2904.5C1436.9 2904.5 1242.9 2935.9 1193 3057.1C1145.4 3172.7 948.6 3200 948.6 3200" stroke="#2F75FD" stroke-opacity="0.03" stroke-width="2" stroke-miterlimit="10"/>
<path d="M1436.9 2868.4C1436.9 2868.4 1216.7 2903.1 1160.1 3039.7C1106.2 3170 882.9 3200 882.9 3200" stroke="#2F75FD" stroke-opacity="0.03" stroke-width="2" stroke-miterlimit="10"/>
<path d="M1436.9 2832.4C1436.9 2832.4 1190.6 2870.4 1127.3 3022.5C1067 3167.3 817.2 3200 817.2 3200" stroke="#2F75FD" stroke-opacity="0.03" stroke-width="2" stroke-miterlimit="10"/>
<path d="M1436.9 2796.4C1436.9 2796.4 1164.4 2837.8 1094.4 3005.2C1027.8 3164.7 751.6 3200 751.6 3200" stroke="#2F75FD" stroke-opacity="0.03" stroke-width="2" stroke-miterlimit="10"/>
<path d="M1436.9 2760.3C1436.9 2760.3 1138.2 2805 1061.6 2987.9C988.6 3162 685.9 3200 685.9 3200" stroke="#2F75FD" stroke-opacity="0.03" stroke-width="2" stroke-miterlimit="10"/>
<path d="M1436.9 2724.3C1436.9 2724.3 1112.1 2772.3 1028.7 2970.6C949.4 3159.4 620.2 3200 620.2 3200" stroke="#2F75FD" stroke-opacity="0.03" stroke-width="2" stroke-miterlimit="10"/>
<path d="M1436.9 2688.3C1436.9 2688.3 1085.9 2739.6 995.9 2953.3C910.2 3156.7 554.5 3200 554.5 3200" stroke="#2F75FD" stroke-opacity="0.03" stroke-width="2" stroke-miterlimit="10"/>
<path d="M1436.9 2652.2C1436.9 2652.2 1059.7 2706.9 963 2936C871 3154 488.9 3200 488.9 3200" stroke="#2F75FD" stroke-opacity="0.03" stroke-width="2" stroke-miterlimit="10"/>
<path d="M1436.9 2616.2C1436.9 2616.2 1033.6 2674.2 930.2 2918.7C831.8 3151.4 423.2 3200 423.2 3200" stroke="#2F75FD" stroke-opacity="0.03" stroke-width="2" stroke-miterlimit="10"/>
<path d="M1436.9 2580.2C1436.9 2580.2 1007.4 2641.5 897.3 2901.5C792.6 3148.7 357.5 3200 357.5 3200" stroke="#2F75FD" stroke-opacity="0.03" stroke-width="2" stroke-miterlimit="10"/>
<path d="M1436.9 2544.1C1436.9 2544.1 981.2 2608.8 864.4 2884.1C753.4 3146 291.8 3200 291.8 3200" stroke="#2F75FD" stroke-opacity="0.03" stroke-width="2" stroke-miterlimit="10"/>
<path d="M1436.9 2508.1C1436.9 2508.1 955.1 2576.1 831.6 2866.9C714.2 3143.4 226.1 3200 226.1 3200" stroke="#2F75FD" stroke-opacity="0.03" stroke-width="2" stroke-miterlimit="10"/>
<path d="M1436.9 2472.1C1436.9 2472.1 928.9 2543.4 798.7 2849.6C675 3140.7 160.5 3200 160.5 3200" stroke="#2F75FD" stroke-opacity="0.03" stroke-width="2" stroke-miterlimit="10"/>
<path d="M1436.9 2436C1436.9 2436 902.7 2510.6 765.9 2832.3C635.7 3138 94.8 3200 94.8 3200" stroke="#2F75FD" stroke-opacity="0.03" stroke-width="2" stroke-miterlimit="10"/>
<path d="M1436.9 2400C1436.9 2400 876.6 2478 733 2815C596.5 3135.4 29.1 3200 29.1 3200" stroke="#2F75FD" stroke-opacity="0.03" stroke-width="2" stroke-miterlimit="10"/>
</g>
</g>
<g clip-path="url(#clip8_47_243)">
<rect width="1440" height="800" transform="translate(0 3200)" fill="white"/>
<g clip-path="url(#clip9_47_243)">
<path d="M1440.6 3200H0.599976V4000H1440.6V3200Z" fill="white"/>
<path d="M0.599976 3243.3C0.599976 3243.3 11.4 3235.2 14.5 3222C17.6 3208.8 29.1 3200 29.1 3200" stroke="#2F75FD" stroke-opacity="0.03" stroke-width="2" stroke-miterlimit="10"/>
<path d="M0.599976 3279.3C0.599976 3279.3 37.6 3267.9 47.4 3239.2C56.8 3211.3 94.8 3200 94.8 3200" stroke="#2F75FD" stroke-opacity="0.03" stroke-width="2" stroke-miterlimit="10"/>
<path d="M0.599976 3315.3C0.599976 3315.3 63.8 3300.6 80.2 3256.5C96 3214 160.5 3200 160.5 3200" stroke="#2F75FD" stroke-opacity="0.03" stroke-width="2" stroke-miterlimit="10"/>
<path d="M0.599976 3351.4C0.599976 3351.4 89.9 3333.3 113.1 3273.8C135.2 3216.6 226.1 3200 226.1 3200" stroke="#2F75FD" stroke-opacity="0.03" stroke-width="2" stroke-miterlimit="10"/>
<path d="M0.599976 3387.4C0.599976 3387.4 116.1 3366 145.9 3291.1C174.4 3219.3 291.8 3200 291.8 3200" stroke="#2F75FD" stroke-opacity="0.03" stroke-width="2" stroke-miterlimit="10"/>
<path d="M0.599976 3423.4C0.599976 3423.4 142.3 3398.7 178.8 3308.3C213.6 3222 357.5 3200 357.5 3200" stroke="#2F75FD" stroke-opacity="0.03" stroke-width="2" stroke-miterlimit="10"/>
<path d="M0.599976 3459.5C0.599976 3459.5 168.4 3431.4 211.6 3325.7C252.8 3224.6 423.2 3200 423.2 3200" stroke="#2F75FD" stroke-opacity="0.03" stroke-width="2" stroke-miterlimit="10"/>
<path d="M0.599976 3495.5C0.599976 3495.5 194.6 3464.1 244.5 3342.9C292 3227.3 488.9 3200 488.9 3200" stroke="#2F75FD" stroke-opacity="0.03" stroke-width="2" stroke-miterlimit="10"/>
<path d="M0.599976 3531.5C0.599976 3531.5 220.8 3496.8 277.4 3360.2C331.2 3230 554.5 3200 554.5 3200" stroke="#2F75FD" stroke-opacity="0.03" stroke-width="2" stroke-miterlimit="10"/>
<path d="M0.599976 3567.6C0.599976 3567.6 246.9 3529.6 310.2 3377.5C370.5 3232.6 620.2 3200 620.2 3200" stroke="#2F75FD" stroke-opacity="0.03" stroke-width="2" stroke-miterlimit="10"/>
<path d="M0.599976 3603.6C0.599976 3603.6 273.1 3562.2 343.1 3394.8C409.7 3235.3 685.9 3200 685.9 3200" stroke="#2F75FD" stroke-opacity="0.03" stroke-width="2" stroke-miterlimit="10"/>
<path d="M0.599976 3639.6C0.599976 3639.6 299.3 3594.9 375.9 3412C448.9 3238 751.6 3200 751.6 3200" stroke="#2F75FD" stroke-opacity="0.03" stroke-width="2" stroke-miterlimit="10"/>
<path d="M0.599976 3675.7C0.599976 3675.7 325.4 3627.7 408.8 3429.4C488.1 3240.6 817.2 3200 817.2 3200" stroke="#2F75FD" stroke-opacity="0.03" stroke-width="2" stroke-miterlimit="10"/>
<path d="M0.599976 3711.7C0.599976 3711.7 351.6 3660.4 441.6 3446.7C527.3 3243.3 882.9 3200 882.9 3200" stroke="#2F75FD" stroke-opacity="0.03" stroke-width="2" stroke-miterlimit="10"/>
<path d="M0.599976 3747.8C0.599976 3747.8 377.8 3693.1 474.5 3464C566.5 3246 948.6 3200 948.6 3200" stroke="#2F75FD" stroke-opacity="0.03" stroke-width="2" stroke-miterlimit="10"/>
<path d="M0.599976 3783.8C0.599976 3783.8 403.9 3725.8 507.3 3481.3C605.7 3248.6 1014.3 3200 1014.3 3200" stroke="#2F75FD" stroke-opacity="0.03" stroke-width="2" stroke-miterlimit="10"/>
<path d="M0.599976 3819.8C0.599976 3819.8 430.1 3758.5 540.2 3498.5C644.9 3251.3 1080 3200 1080 3200" stroke="#2F75FD" stroke-opacity="0.03" stroke-width="2" stroke-miterlimit="10"/>
<path d="M0.599976 3855.9C0.599976 3855.9 456.3 3791.2 573.1 3515.9C684.1 3254 1145.6 3200 1145.6 3200" stroke="#2F75FD" stroke-opacity="0.03" stroke-width="2" stroke-miterlimit="10"/>
<path d="M0.599976 3891.9C0.599976 3891.9 482.4 3823.9 605.9 3533.1C723.3 3256.6 1211.3 3200 1211.3 3200" stroke="#2F75FD" stroke-opacity="0.03" stroke-width="2" stroke-miterlimit="10"/>
<path d="M0.599976 3927.9C0.599976 3927.9 508.6 3856.6 638.8 3550.4C762.5 3259.3 1277 3200 1277 3200" stroke="#2F75FD" stroke-opacity="0.03" stroke-width="2" stroke-miterlimit="10"/>
<path d="M0.599976 3964C0.599976 3964 534.8 3889.4 671.6 3567.7C801.7 3262 1342.7 3200 1342.7 3200" stroke="#2F75FD" stroke-opacity="0.03" stroke-width="2" stroke-miterlimit="10"/>
<path d="M0.599976 4000C0.599976 4000 560.9 3922 704.5 3585C840.9 3264.6 1408.3 3200 1408.3 3200" stroke="#2F75FD" stroke-opacity="0.03" stroke-width="2" stroke-miterlimit="10"/>
<path d="M1436.9 3956.7C1436.9 3956.7 1426.1 3964.8 1423 3978C1419.9 3991.3 1408.4 3999.9 1408.4 3999.9" stroke="#2F75FD" stroke-opacity="0.03" stroke-width="2" stroke-miterlimit="10"/>
<path d="M1436.9 3920.7C1436.9 3920.7 1399.9 3932.1 1390.1 3960.8C1380.7 3988.7 1342.7 4000 1342.7 4000" stroke="#2F75FD" stroke-opacity="0.03" stroke-width="2" stroke-miterlimit="10"/>
<path d="M1436.9 3884.7C1436.9 3884.7 1373.7 3899.4 1357.3 3943.5C1341.4 3986 1277 4000 1277 4000" stroke="#2F75FD" stroke-opacity="0.03" stroke-width="2" stroke-miterlimit="10"/>
<path d="M1436.9 3848.6C1436.9 3848.6 1347.6 3866.7 1324.4 3926.2C1302.3 3983.3 1211.3 4000 1211.3 4000" stroke="#2F75FD" stroke-opacity="0.03" stroke-width="2" stroke-miterlimit="10"/>
<path d="M1436.9 3812.6C1436.9 3812.6 1321.4 3834 1291.6 3908.9C1263.1 3980.7 1145.7 4000 1145.7 4000" stroke="#2F75FD" stroke-opacity="0.03" stroke-width="2" stroke-miterlimit="10"/>
<path d="M1436.9 3776.5C1436.9 3776.5 1295.2 3801.2 1258.7 3891.6C1223.8 3978 1080 4000 1080 4000" stroke="#2F75FD" stroke-opacity="0.03" stroke-width="2" stroke-miterlimit="10"/>
<path d="M1436.9 3740.5C1436.9 3740.5 1269.1 3768.6 1225.9 3874.3C1184.7 3975.3 1014.4 4000 1014.4 4000" stroke="#2F75FD" stroke-opacity="0.03" stroke-width="2" stroke-miterlimit="10"/>
<path d="M1436.9 3704.5C1436.9 3704.5 1242.9 3735.9 1193 3857.1C1145.4 3972.7 948.6 4000 948.6 4000" stroke="#2F75FD" stroke-opacity="0.03" stroke-width="2" stroke-miterlimit="10"/>
<path d="M1436.9 3668.4C1436.9 3668.4 1216.7 3703.1 1160.1 3839.7C1106.2 3970 882.9 4000 882.9 4000" stroke="#2F75FD" stroke-opacity="0.03" stroke-width="2" stroke-miterlimit="10"/>
<path d="M1436.9 3632.4C1436.9 3632.4 1190.6 3670.4 1127.3 3822.5C1067 3967.3 817.2 4000 817.2 4000" stroke="#2F75FD" stroke-opacity="0.03" stroke-width="2" stroke-miterlimit="10"/>
<path d="M1436.9 3596.4C1436.9 3596.4 1164.4 3637.8 1094.4 3805.2C1027.8 3964.7 751.6 4000 751.6 4000" stroke="#2F75FD" stroke-opacity="0.03" stroke-width="2" stroke-miterlimit="10"/>
<path d="M1436.9 3560.3C1436.9 3560.3 1138.2 3605 1061.6 3787.9C988.6 3962 685.9 4000 685.9 4000" stroke="#2F75FD" stroke-opacity="0.03" stroke-width="2" stroke-miterlimit="10"/>
<path d="M1436.9 3524.3C1436.9 3524.3 1112.1 3572.3 1028.7 3770.6C949.4 3959.4 620.2 4000 620.2 4000" stroke="#2F75FD" stroke-opacity="0.03" stroke-width="2" stroke-miterlimit="10"/>
<path d="M1436.9 3488.3C1436.9 3488.3 1085.9 3539.6 995.9 3753.3C910.2 3956.7 554.5 4000 554.5 4000" stroke="#2F75FD" stroke-opacity="0.03" stroke-width="2" stroke-miterlimit="10"/>
<path d="M1436.9 3452.2C1436.9 3452.2 1059.7 3506.9 963 3736C871 3954 488.9 4000 488.9 4000" stroke="#2F75FD" stroke-opacity="0.03" stroke-width="2" stroke-miterlimit="10"/>
<path d="M1436.9 3416.2C1436.9 3416.2 1033.6 3474.2 930.2 3718.7C831.8 3951.4 423.2 4000 423.2 4000" stroke="#2F75FD" stroke-opacity="0.03" stroke-width="2" stroke-miterlimit="10"/>
<path d="M1436.9 3380.2C1436.9 3380.2 1007.4 3441.5 897.3 3701.5C792.6 3948.7 357.5 4000 357.5 4000" stroke="#2F75FD" stroke-opacity="0.03" stroke-width="2" stroke-miterlimit="10"/>
<path d="M1436.9 3344.1C1436.9 3344.1 981.2 3408.8 864.4 3684.1C753.4 3946 291.8 4000 291.8 4000" stroke="#2F75FD" stroke-opacity="0.03" stroke-width="2" stroke-miterlimit="10"/>
<path d="M1436.9 3308.1C1436.9 3308.1 955.1 3376.1 831.6 3666.9C714.2 3943.4 226.1 4000 226.1 4000" stroke="#2F75FD" stroke-opacity="0.03" stroke-width="2" stroke-miterlimit="10"/>
<path d="M1436.9 3272.1C1436.9 3272.1 928.9 3343.4 798.7 3649.6C675 3940.7 160.5 4000 160.5 4000" stroke="#2F75FD" stroke-opacity="0.03" stroke-width="2" stroke-miterlimit="10"/>
<path d="M1436.9 3236C1436.9 3236 902.7 3310.6 765.9 3632.3C635.7 3938 94.8 4000 94.8 4000" stroke="#2F75FD" stroke-opacity="0.03" stroke-width="2" stroke-miterlimit="10"/>
<path d="M1436.9 3200C1436.9 3200 876.6 3278 733 3615C596.5 3935.4 29.1 4000 29.1 4000" stroke="#2F75FD" stroke-opacity="0.03" stroke-width="2" stroke-miterlimit="10"/>
</g>
</g>
<g clip-path="url(#clip10_47_243)">
<rect width="1440" height="800" transform="translate(0 4000)" fill="white"/>
<g clip-path="url(#clip11_47_243)">
<path d="M1440.6 4000H0.599976V4800H1440.6V4000Z" fill="white"/>
<path d="M0.599976 4043.3C0.599976 4043.3 11.4 4035.2 14.5 4022C17.6 4008.8 29.1 4000 29.1 4000" stroke="#2F75FD" stroke-opacity="0.03" stroke-width="2" stroke-miterlimit="10"/>
<path d="M0.599976 4079.3C0.599976 4079.3 37.6 4067.9 47.4 4039.2C56.8 4011.3 94.8 4000 94.8 4000" stroke="#2F75FD" stroke-opacity="0.03" stroke-width="2" stroke-miterlimit="10"/>
<path d="M0.599976 4115.3C0.599976 4115.3 63.8 4100.6 80.2 4056.5C96 4014 160.5 4000 160.5 4000" stroke="#2F75FD" stroke-opacity="0.03" stroke-width="2" stroke-miterlimit="10"/>
<path d="M0.599976 4151.4C0.599976 4151.4 89.9 4133.3 113.1 4073.8C135.2 4016.6 226.1 4000 226.1 4000" stroke="#2F75FD" stroke-opacity="0.03" stroke-width="2" stroke-miterlimit="10"/>
<path d="M0.599976 4187.4C0.599976 4187.4 116.1 4166 145.9 4091.1C174.4 4019.3 291.8 4000 291.8 4000" stroke="#2F75FD" stroke-opacity="0.03" stroke-width="2" stroke-miterlimit="10"/>
<path d="M0.599976 4223.4C0.599976 4223.4 142.3 4198.7 178.8 4108.3C213.6 4022 357.5 4000 357.5 4000" stroke="#2F75FD" stroke-opacity="0.03" stroke-width="2" stroke-miterlimit="10"/>
<path d="M0.599976 4259.5C0.599976 4259.5 168.4 4231.4 211.6 4125.7C252.8 4024.6 423.2 4000 423.2 4000" stroke="#2F75FD" stroke-opacity="0.03" stroke-width="2" stroke-miterlimit="10"/>
<path d="M0.599976 4295.5C0.599976 4295.5 194.6 4264.1 244.5 4142.9C292 4027.3 488.9 4000 488.9 4000" stroke="#2F75FD" stroke-opacity="0.03" stroke-width="2" stroke-miterlimit="10"/>
<path d="M0.599976 4331.5C0.599976 4331.5 220.8 4296.8 277.4 4160.2C331.2 4030 554.5 4000 554.5 4000" stroke="#2F75FD" stroke-opacity="0.03" stroke-width="2" stroke-miterlimit="10"/>
<path d="M0.599976 4367.6C0.599976 4367.6 246.9 4329.6 310.2 4177.5C370.5 4032.6 620.2 4000 620.2 4000" stroke="#2F75FD" stroke-opacity="0.03" stroke-width="2" stroke-miterlimit="10"/>
<path d="M0.599976 4403.6C0.599976 4403.6 273.1 4362.2 343.1 4194.8C409.7 4035.3 685.9 4000 685.9 4000" stroke="#2F75FD" stroke-opacity="0.03" stroke-width="2" stroke-miterlimit="10"/>
<path d="M0.599976 4439.6C0.599976 4439.6 299.3 4394.9 375.9 4212C448.9 4038 751.6 4000 751.6 4000" stroke="#2F75FD" stroke-opacity="0.03" stroke-width="2" stroke-miterlimit="10"/>
<path d="M0.599976 4475.7C0.599976 4475.7 325.4 4427.7 408.8 4229.4C488.1 4040.6 817.2 4000 817.2 4000" stroke="#2F75FD" stroke-opacity="0.03" stroke-width="2" stroke-miterlimit="10"/>
<path d="M0.599976 4511.7C0.599976 4511.7 351.6 4460.4 441.6 4246.7C527.3 4043.3 882.9 4000 882.9 4000" stroke="#2F75FD" stroke-opacity="0.03" stroke-width="2" stroke-miterlimit="10"/>
<path d="M0.599976 4547.8C0.599976 4547.8 377.8 4493.1 474.5 4264C566.5 4046 948.6 4000 948.6 4000" stroke="#2F75FD" stroke-opacity="0.03" stroke-width="2" stroke-miterlimit="10"/>
<path d="M0.599976 4583.8C0.599976 4583.8 403.9 4525.8 507.3 4281.3C605.7 4048.6 1014.3 4000 1014.3 4000" stroke="#2F75FD" stroke-opacity="0.03" stroke-width="2" stroke-miterlimit="10"/>
<path d="M0.599976 4619.8C0.599976 4619.8 430.1 4558.5 540.2 4298.5C644.9 4051.3 1080 4000 1080 4000" stroke="#2F75FD" stroke-opacity="0.03" stroke-width="2" stroke-miterlimit="10"/>
<path d="M0.599976 4655.9C0.599976 4655.9 456.3 4591.2 573.1 4315.9C684.1 4054 1145.6 4000 1145.6 4000" stroke="#2F75FD" stroke-opacity="0.03" stroke-width="2" stroke-miterlimit="10"/>
<path d="M0.599976 4691.9C0.599976 4691.9 482.4 4623.9 605.9 4333.1C723.3 4056.6 1211.3 4000 1211.3 4000" stroke="#2F75FD" stroke-opacity="0.03" stroke-width="2" stroke-miterlimit="10"/>
<path d="M0.599976 4727.9C0.599976 4727.9 508.6 4656.6 638.8 4350.4C762.5 4059.3 1277 4000 1277 4000" stroke="#2F75FD" stroke-opacity="0.03" stroke-width="2" stroke-miterlimit="10"/>
<path d="M0.599976 4764C0.599976 4764 534.8 4689.4 671.6 4367.7C801.7 4062 1342.7 4000 1342.7 4000" stroke="#2F75FD" stroke-opacity="0.03" stroke-width="2" stroke-miterlimit="10"/>
<path d="M0.599976 4800C0.599976 4800 560.9 4722 704.5 4385C840.9 4064.6 1408.3 4000 1408.3 4000" stroke="#2F75FD" stroke-opacity="0.03" stroke-width="2" stroke-miterlimit="10"/>
<path d="M1436.9 4756.7C1436.9 4756.7 1426.1 4764.8 1423 4778C1419.9 4791.3 1408.4 4799.9 1408.4 4799.9" stroke="#2F75FD" stroke-opacity="0.03" stroke-width="2" stroke-miterlimit="10"/>
<path d="M1436.9 4720.7C1436.9 4720.7 1399.9 4732.1 1390.1 4760.8C1380.7 4788.7 1342.7 4800 1342.7 4800" stroke="#2F75FD" stroke-opacity="0.03" stroke-width="2" stroke-miterlimit="10"/>
<path d="M1436.9 4684.7C1436.9 4684.7 1373.7 4699.4 1357.3 4743.5C1341.4 4786 1277 4800 1277 4800" stroke="#2F75FD" stroke-opacity="0.03" stroke-width="2" stroke-miterlimit="10"/>
<path d="M1436.9 4648.6C1436.9 4648.6 1347.6 4666.7 1324.4 4726.2C1302.3 4783.3 1211.3 4800 1211.3 4800" stroke="#2F75FD" stroke-opacity="0.03" stroke-width="2" stroke-miterlimit="10"/>
<path d="M1436.9 4612.6C1436.9 4612.6 1321.4 4634 1291.6 4708.9C1263.1 4780.7 1145.7 4800 1145.7 4800" stroke="#2F75FD" stroke-opacity="0.03" stroke-width="2" stroke-miterlimit="10"/>
<path d="M1436.9 4576.5C1436.9 4576.5 1295.2 4601.2 1258.7 4691.6C1223.8 4778 1080 4800 1080 4800" stroke="#2F75FD" stroke-opacity="0.03" stroke-width="2" stroke-miterlimit="10"/>
<path d="M1436.9 4540.5C1436.9 4540.5 1269.1 4568.6 1225.9 4674.3C1184.7 4775.3 1014.4 4800 1014.4 4800" stroke="#2F75FD" stroke-opacity="0.03" stroke-width="2" stroke-miterlimit="10"/>
<path d="M1436.9 4504.5C1436.9 4504.5 1242.9 4535.9 1193 4657.1C1145.4 4772.7 948.6 4800 948.6 4800" stroke="#2F75FD" stroke-opacity="0.03" stroke-width="2" stroke-miterlimit="10"/>
<path d="M1436.9 4468.4C1436.9 4468.4 1216.7 4503.1 1160.1 4639.7C1106.2 4770 882.9 4800 882.9 4800" stroke="#2F75FD" stroke-opacity="0.03" stroke-width="2" stroke-miterlimit="10"/>
<path d="M1436.9 4432.4C1436.9 4432.4 1190.6 4470.4 1127.3 4622.5C1067 4767.3 817.2 4800 817.2 4800" stroke="#2F75FD" stroke-opacity="0.03" stroke-width="2" stroke-miterlimit="10"/>
<path d="M1436.9 4396.4C1436.9 4396.4 1164.4 4437.8 1094.4 4605.2C1027.8 4764.7 751.6 4800 751.6 4800" stroke="#2F75FD" stroke-opacity="0.03" stroke-width="2" stroke-miterlimit="10"/>
<path d="M1436.9 4360.3C1436.9 4360.3 1138.2 4405 1061.6 4587.9C988.6 4762 685.9 4800 685.9 4800" stroke="#2F75FD" stroke-opacity="0.03" stroke-width="2" stroke-miterlimit="10"/>
<path d="M1436.9 4324.3C1436.9 4324.3 1112.1 4372.3 1028.7 4570.6C949.4 4759.4 620.2 4800 620.2 4800" stroke="#2F75FD" stroke-opacity="0.03" stroke-width="2" stroke-miterlimit="10"/>
<path d="M1436.9 4288.3C1436.9 4288.3 1085.9 4339.6 995.9 4553.3C910.2 4756.7 554.5 4800 554.5 4800" stroke="#2F75FD" stroke-opacity="0.03" stroke-width="2" stroke-miterlimit="10"/>
<path d="M1436.9 4252.2C1436.9 4252.2 1059.7 4306.9 963 4536C871 4754 488.9 4800 488.9 4800" stroke="#2F75FD" stroke-opacity="0.03" stroke-width="2" stroke-miterlimit="10"/>
<path d="M1436.9 4216.2C1436.9 4216.2 1033.6 4274.2 930.2 4518.7C831.8 4751.4 423.2 4800 423.2 4800" stroke="#2F75FD" stroke-opacity="0.03" stroke-width="2" stroke-miterlimit="10"/>
<path d="M1436.9 4180.2C1436.9 4180.2 1007.4 4241.5 897.3 4501.5C792.6 4748.7 357.5 4800 357.5 4800" stroke="#2F75FD" stroke-opacity="0.03" stroke-width="2" stroke-miterlimit="10"/>
<path d="M1436.9 4144.1C1436.9 4144.1 981.2 4208.8 864.4 4484.1C753.4 4746 291.8 4800 291.8 4800" stroke="#2F75FD" stroke-opacity="0.03" stroke-width="2" stroke-miterlimit="10"/>
<path d="M1436.9 4108.1C1436.9 4108.1 955.1 4176.1 831.6 4466.9C714.2 4743.4 226.1 4800 226.1 4800" stroke="#2F75FD" stroke-opacity="0.03" stroke-width="2" stroke-miterlimit="10"/>
<path d="M1436.9 4072.1C1436.9 4072.1 928.9 4143.4 798.7 4449.6C675 4740.7 160.5 4800 160.5 4800" stroke="#2F75FD" stroke-opacity="0.03" stroke-width="2" stroke-miterlimit="10"/>
<path d="M1436.9 4036C1436.9 4036 902.7 4110.6 765.9 4432.3C635.7 4738 94.8 4800 94.8 4800" stroke="#2F75FD" stroke-opacity="0.03" stroke-width="2" stroke-miterlimit="10"/>
<path d="M1436.9 4000C1436.9 4000 876.6 4078 733 4415C596.5 4735.4 29.1 4800 29.1 4800" stroke="#2F75FD" stroke-opacity="0.03" stroke-width="2" stroke-miterlimit="10"/>
</g>
</g>
<g clip-path="url(#clip12_47_243)">
<rect width="1440" height="800" transform="translate(0 4800)" fill="white"/>
<g clip-path="url(#clip13_47_243)">
<path d="M1440.6 4800H0.599976V5600H1440.6V4800Z" fill="white"/>
<path d="M0.599976 4843.3C0.599976 4843.3 11.4 4835.2 14.5 4822C17.6 4808.8 29.1 4800 29.1 4800" stroke="#2F75FD" stroke-opacity="0.03" stroke-width="2" stroke-miterlimit="10"/>
<path d="M0.599976 4879.3C0.599976 4879.3 37.6 4867.9 47.4 4839.2C56.8 4811.3 94.8 4800 94.8 4800" stroke="#2F75FD" stroke-opacity="0.03" stroke-width="2" stroke-miterlimit="10"/>
<path d="M0.599976 4915.3C0.599976 4915.3 63.8 4900.6 80.2 4856.5C96 4814 160.5 4800 160.5 4800" stroke="#2F75FD" stroke-opacity="0.03" stroke-width="2" stroke-miterlimit="10"/>
<path d="M0.599976 4951.4C0.599976 4951.4 89.9 4933.3 113.1 4873.8C135.2 4816.6 226.1 4800 226.1 4800" stroke="#2F75FD" stroke-opacity="0.03" stroke-width="2" stroke-miterlimit="10"/>
<path d="M0.599976 4987.4C0.599976 4987.4 116.1 4966 145.9 4891.1C174.4 4819.3 291.8 4800 291.8 4800" stroke="#2F75FD" stroke-opacity="0.03" stroke-width="2" stroke-miterlimit="10"/>
<path d="M0.599976 5023.4C0.599976 5023.4 142.3 4998.7 178.8 4908.3C213.6 4822 357.5 4800 357.5 4800" stroke="#2F75FD" stroke-opacity="0.03" stroke-width="2" stroke-miterlimit="10"/>
<path d="M0.599976 5059.5C0.599976 5059.5 168.4 5031.4 211.6 4925.7C252.8 4824.6 423.2 4800 423.2 4800" stroke="#2F75FD" stroke-opacity="0.03" stroke-width="2" stroke-miterlimit="10"/>
<path d="M0.599976 5095.5C0.599976 5095.5 194.6 5064.1 244.5 4942.9C292 4827.3 488.9 4800 488.9 4800" stroke="#2F75FD" stroke-opacity="0.03" stroke-width="2" stroke-miterlimit="10"/>
<path d="M0.599976 5131.5C0.599976 5131.5 220.8 5096.8 277.4 4960.2C331.2 4830 554.5 4800 554.5 4800" stroke="#2F75FD" stroke-opacity="0.03" stroke-width="2" stroke-miterlimit="10"/>
<path d="M0.599976 5167.6C0.599976 5167.6 246.9 5129.6 310.2 4977.5C370.5 4832.6 620.2 4800 620.2 4800" stroke="#2F75FD" stroke-opacity="0.03" stroke-width="2" stroke-miterlimit="10"/>
<path d="M0.599976 5203.6C0.599976 5203.6 273.1 5162.2 343.1 4994.8C409.7 4835.3 685.9 4800 685.9 4800" stroke="#2F75FD" stroke-opacity="0.03" stroke-width="2" stroke-miterlimit="10"/>
<path d="M0.599976 5239.6C0.599976 5239.6 299.3 5194.9 375.9 5012C448.9 4838 751.6 4800 751.6 4800" stroke="#2F75FD" stroke-opacity="0.03" stroke-width="2" stroke-miterlimit="10"/>
<path d="M0.599976 5275.7C0.599976 5275.7 325.4 5227.7 408.8 5029.4C488.1 4840.6 817.2 4800 817.2 4800" stroke="#2F75FD" stroke-opacity="0.03" stroke-width="2" stroke-miterlimit="10"/>
<path d="M0.599976 5311.7C0.599976 5311.7 351.6 5260.4 441.6 5046.7C527.3 4843.3 882.9 4800 882.9 4800" stroke="#2F75FD" stroke-opacity="0.03" stroke-width="2" stroke-miterlimit="10"/>
<path d="M0.599976 5347.8C0.599976 5347.8 377.8 5293.1 474.5 5064C566.5 4846 948.6 4800 948.6 4800" stroke="#2F75FD" stroke-opacity="0.03" stroke-width="2" stroke-miterlimit="10"/>
<path d="M0.599976 5383.8C0.599976 5383.8 403.9 5325.8 507.3 5081.3C605.7 4848.6 1014.3 4800 1014.3 4800" stroke="#2F75FD" stroke-opacity="0.03" stroke-width="2" stroke-miterlimit="10"/>
<path d="M0.599976 5419.8C0.599976 5419.8 430.1 5358.5 540.2 5098.5C644.9 4851.3 1080 4800 1080 4800" stroke="#2F75FD" stroke-opacity="0.03" stroke-width="2" stroke-miterlimit="10"/>
<path d="M0.599976 5455.9C0.599976 5455.9 456.3 5391.2 573.1 5115.9C684.1 4854 1145.6 4800 1145.6 4800" stroke="#2F75FD" stroke-opacity="0.03" stroke-width="2" stroke-miterlimit="10"/>
<path d="M0.599976 5491.9C0.599976 5491.9 482.4 5423.9 605.9 5133.1C723.3 4856.6 1211.3 4800 1211.3 4800" stroke="#2F75FD" stroke-opacity="0.03" stroke-width="2" stroke-miterlimit="10"/>
<path d="M0.599976 5527.9C0.599976 5527.9 508.6 5456.6 638.8 5150.4C762.5 4859.3 1277 4800 1277 4800" stroke="#2F75FD" stroke-opacity="0.03" stroke-width="2" stroke-miterlimit="10"/>
<path d="M0.599976 5564C0.599976 5564 534.8 5489.4 671.6 5167.7C801.7 4862 1342.7 4800 1342.7 4800" stroke="#2F75FD" stroke-opacity="0.03" stroke-width="2" stroke-miterlimit="10"/>
<path d="M0.599976 5600C0.599976 5600 560.9 5522 704.5 5185C840.9 4864.6 1408.3 4800 1408.3 4800" stroke="#2F75FD" stroke-opacity="0.03" stroke-width="2" stroke-miterlimit="10"/>
<path d="M1436.9 5556.7C1436.9 5556.7 1426.1 5564.8 1423 5578C1419.9 5591.3 1408.4 5599.9 1408.4 5599.9" stroke="#2F75FD" stroke-opacity="0.03" stroke-width="2" stroke-miterlimit="10"/>
<path d="M1436.9 5520.7C1436.9 5520.7 1399.9 5532.1 1390.1 5560.8C1380.7 5588.7 1342.7 5600 1342.7 5600" stroke="#2F75FD" stroke-opacity="0.03" stroke-width="2" stroke-miterlimit="10"/>
<path d="M1436.9 5484.7C1436.9 5484.7 1373.7 5499.4 1357.3 5543.5C1341.4 5586 1277 5600 1277 5600" stroke="#2F75FD" stroke-opacity="0.03" stroke-width="2" stroke-miterlimit="10"/>
<path d="M1436.9 5448.6C1436.9 5448.6 1347.6 5466.7 1324.4 5526.2C1302.3 5583.3 1211.3 5600 1211.3 5600" stroke="#2F75FD" stroke-opacity="0.03" stroke-width="2" stroke-miterlimit="10"/>
<path d="M1436.9 5412.6C1436.9 5412.6 1321.4 5434 1291.6 5508.9C1263.1 5580.7 1145.7 5600 1145.7 5600" stroke="#2F75FD" stroke-opacity="0.03" stroke-width="2" stroke-miterlimit="10"/>
<path d="M1436.9 5376.5C1436.9 5376.5 1295.2 5401.2 1258.7 5491.6C1223.8 5578 1080 5600 1080 5600" stroke="#2F75FD" stroke-opacity="0.03" stroke-width="2" stroke-miterlimit="10"/>
<path d="M1436.9 5340.5C1436.9 5340.5 1269.1 5368.6 1225.9 5474.3C1184.7 5575.3 1014.4 5600 1014.4 5600" stroke="#2F75FD" stroke-opacity="0.03" stroke-width="2" stroke-miterlimit="10"/>
<path d="M1436.9 5304.5C1436.9 5304.5 1242.9 5335.9 1193 5457.1C1145.4 5572.7 948.6 5600 948.6 5600" stroke="#2F75FD" stroke-opacity="0.03" stroke-width="2" stroke-miterlimit="10"/>
<path d="M1436.9 5268.4C1436.9 5268.4 1216.7 5303.1 1160.1 5439.7C1106.2 5570 882.9 5600 882.9 5600" stroke="#2F75FD" stroke-opacity="0.03" stroke-width="2" stroke-miterlimit="10"/>
<path d="M1436.9 5232.4C1436.9 5232.4 1190.6 5270.4 1127.3 5422.5C1067 5567.3 817.2 5600 817.2 5600" stroke="#2F75FD" stroke-opacity="0.03" stroke-width="2" stroke-miterlimit="10"/>
<path d="M1436.9 5196.4C1436.9 5196.4 1164.4 5237.8 1094.4 5405.2C1027.8 5564.7 751.6 5600 751.6 5600" stroke="#2F75FD" stroke-opacity="0.03" stroke-width="2" stroke-miterlimit="10"/>
<path d="M1436.9 5160.3C1436.9 5160.3 1138.2 5205 1061.6 5387.9C988.6 5562 685.9 5600 685.9 5600" stroke="#2F75FD" stroke-opacity="0.03" stroke-width="2" stroke-miterlimit="10"/>
<path d="M1436.9 5124.3C1436.9 5124.3 1112.1 5172.3 1028.7 5370.6C949.4 5559.4 620.2 5600 620.2 5600" stroke="#2F75FD" stroke-opacity="0.03" stroke-width="2" stroke-miterlimit="10"/>
<path d="M1436.9 5088.3C1436.9 5088.3 1085.9 5139.6 995.9 5353.3C910.2 5556.7 554.5 5600 554.5 5600" stroke="#2F75FD" stroke-opacity="0.03" stroke-width="2" stroke-miterlimit="10"/>
<path d="M1436.9 5052.2C1436.9 5052.2 1059.7 5106.9 963 5336C871 5554 488.9 5600 488.9 5600" stroke="#2F75FD" stroke-opacity="0.03" stroke-width="2" stroke-miterlimit="10"/>
<path d="M1436.9 5016.2C1436.9 5016.2 1033.6 5074.2 930.2 5318.7C831.8 5551.4 423.2 5600 423.2 5600" stroke="#2F75FD" stroke-opacity="0.03" stroke-width="2" stroke-miterlimit="10"/>
<path d="M1436.9 4980.2C1436.9 4980.2 1007.4 5041.5 897.3 5301.5C792.6 5548.7 357.5 5600 357.5 5600" stroke="#2F75FD" stroke-opacity="0.03" stroke-width="2" stroke-miterlimit="10"/>
<path d="M1436.9 4944.1C1436.9 4944.1 981.2 5008.8 864.4 5284.1C753.4 5546 291.8 5600 291.8 5600" stroke="#2F75FD" stroke-opacity="0.03" stroke-width="2" stroke-miterlimit="10"/>
<path d="M1436.9 4908.1C1436.9 4908.1 955.1 4976.1 831.6 5266.9C714.2 5543.4 226.1 5600 226.1 5600" stroke="#2F75FD" stroke-opacity="0.03" stroke-width="2" stroke-miterlimit="10"/>
<path d="M1436.9 4872.1C1436.9 4872.1 928.9 4943.4 798.7 5249.6C675 5540.7 160.5 5600 160.5 5600" stroke="#2F75FD" stroke-opacity="0.03" stroke-width="2" stroke-miterlimit="10"/>
<path d="M1436.9 4836C1436.9 4836 902.7 4910.6 765.9 5232.3C635.7 5538 94.8 5600 94.8 5600" stroke="#2F75FD" stroke-opacity="0.03" stroke-width="2" stroke-miterlimit="10"/>
<path d="M1436.9 4800C1436.9 4800 876.6 4878 733 5215C596.5 5535.4 29.1 5600 29.1 5600" stroke="#2F75FD" stroke-opacity="0.03" stroke-width="2" stroke-miterlimit="10"/>
</g>
</g>
<g clip-path="url(#clip14_47_243)">
<rect width="1440" height="800" transform="translate(0 5600)" fill="white"/>
<g clip-path="url(#clip15_47_243)">
<path d="M1440.6 5600H0.599976V6400H1440.6V5600Z" fill="white"/>
<path d="M0.599976 5643.3C0.599976 5643.3 11.4 5635.2 14.5 5622C17.6 5608.8 29.1 5600 29.1 5600" stroke="#2F75FD" stroke-opacity="0.03" stroke-width="2" stroke-miterlimit="10"/>
<path d="M0.599976 5679.3C0.599976 5679.3 37.6 5667.9 47.4 5639.2C56.8 5611.3 94.8 5600 94.8 5600" stroke="#2F75FD" stroke-opacity="0.03" stroke-width="2" stroke-miterlimit="10"/>
<path d="M0.599976 5715.3C0.599976 5715.3 63.8 5700.6 80.2 5656.5C96 5614 160.5 5600 160.5 5600" stroke="#2F75FD" stroke-opacity="0.03" stroke-width="2" stroke-miterlimit="10"/>
<path d="M0.599976 5751.4C0.599976 5751.4 89.9 5733.3 113.1 5673.8C135.2 5616.6 226.1 5600 226.1 5600" stroke="#2F75FD" stroke-opacity="0.03" stroke-width="2" stroke-miterlimit="10"/>
<path d="M0.599976 5787.4C0.599976 5787.4 116.1 5766 145.9 5691.1C174.4 5619.3 291.8 5600 291.8 5600" stroke="#2F75FD" stroke-opacity="0.03" stroke-width="2" stroke-miterlimit="10"/>
<path d="M0.599976 5823.4C0.599976 5823.4 142.3 5798.7 178.8 5708.3C213.6 5622 357.5 5600 357.5 5600" stroke="#2F75FD" stroke-opacity="0.03" stroke-width="2" stroke-miterlimit="10"/>
<path d="M0.599976 5859.5C0.599976 5859.5 168.4 5831.4 211.6 5725.7C252.8 5624.6 423.2 5600 423.2 5600" stroke="#2F75FD" stroke-opacity="0.03" stroke-width="2" stroke-miterlimit="10"/>
<path d="M0.599976 5895.5C0.599976 5895.5 194.6 5864.1 244.5 5742.9C292 5627.3 488.9 5600 488.9 5600" stroke="#2F75FD" stroke-opacity="0.03" stroke-width="2" stroke-miterlimit="10"/>
<path d="M0.599976 5931.5C0.599976 5931.5 220.8 5896.8 277.4 5760.2C331.2 5630 554.5 5600 554.5 5600" stroke="#2F75FD" stroke-opacity="0.03" stroke-width="2" stroke-miterlimit="10"/>
<path d="M0.599976 5967.6C0.599976 5967.6 246.9 5929.6 310.2 5777.5C370.5 5632.6 620.2 5600 620.2 5600" stroke="#2F75FD" stroke-opacity="0.03" stroke-width="2" stroke-miterlimit="10"/>
<path d="M0.599976 6003.6C0.599976 6003.6 273.1 5962.2 343.1 5794.8C409.7 5635.3 685.9 5600 685.9 5600" stroke="#2F75FD" stroke-opacity="0.03" stroke-width="2" stroke-miterlimit="10"/>
<path d="M0.599976 6039.6C0.599976 6039.6 299.3 5994.9 375.9 5812C448.9 5638 751.6 5600 751.6 5600" stroke="#2F75FD" stroke-opacity="0.03" stroke-width="2" stroke-miterlimit="10"/>
<path d="M0.599976 6075.7C0.599976 6075.7 325.4 6027.7 408.8 5829.4C488.1 5640.6 817.2 5600 817.2 5600" stroke="#2F75FD" stroke-opacity="0.03" stroke-width="2" stroke-miterlimit="10"/>
<path d="M0.599976 6111.7C0.599976 6111.7 351.6 6060.4 441.6 5846.7C527.3 5643.3 882.9 5600 882.9 5600" stroke="#2F75FD" stroke-opacity="0.03" stroke-width="2" stroke-miterlimit="10"/>
<path d="M0.599976 6147.8C0.599976 6147.8 377.8 6093.1 474.5 5864C566.5 5646 948.6 5600 948.6 5600" stroke="#2F75FD" stroke-opacity="0.03" stroke-width="2" stroke-miterlimit="10"/>
<path d="M0.599976 6183.8C0.599976 6183.8 403.9 6125.8 507.3 5881.3C605.7 5648.6 1014.3 5600 1014.3 5600" stroke="#2F75FD" stroke-opacity="0.03" stroke-width="2" stroke-miterlimit="10"/>
<path d="M0.599976 6219.8C0.599976 6219.8 430.1 6158.5 540.2 5898.5C644.9 5651.3 1080 5600 1080 5600" stroke="#2F75FD" stroke-opacity="0.03" stroke-width="2" stroke-miterlimit="10"/>
<path d="M0.599976 6255.9C0.599976 6255.9 456.3 6191.2 573.1 5915.9C684.1 5654 1145.6 5600 1145.6 5600" stroke="#2F75FD" stroke-opacity="0.03" stroke-width="2" stroke-miterlimit="10"/>
<path d="M0.599976 6291.9C0.599976 6291.9 482.4 6223.9 605.9 5933.1C723.3 5656.6 1211.3 5600 1211.3 5600" stroke="#2F75FD" stroke-opacity="0.03" stroke-width="2" stroke-miterlimit="10"/>
<path d="M0.599976 6327.9C0.599976 6327.9 508.6 6256.6 638.8 5950.4C762.5 5659.3 1277 5600 1277 5600" stroke="#2F75FD" stroke-opacity="0.03" stroke-width="2" stroke-miterlimit="10"/>
<path d="M0.599976 6364C0.599976 6364 534.8 6289.4 671.6 5967.7C801.7 5662 1342.7 5600 1342.7 5600" stroke="#2F75FD" stroke-opacity="0.03" stroke-width="2" stroke-miterlimit="10"/>
<path d="M0.599976 6400C0.599976 6400 560.9 6322 704.5 5985C840.9 5664.6 1408.3 5600 1408.3 5600" stroke="#2F75FD" stroke-opacity="0.03" stroke-width="2" stroke-miterlimit="10"/>
<path d="M1436.9 6356.7C1436.9 6356.7 1426.1 6364.8 1423 6378C1419.9 6391.3 1408.4 6399.9 1408.4 6399.9" stroke="#2F75FD" stroke-opacity="0.03" stroke-width="2" stroke-miterlimit="10"/>
<path d="M1436.9 6320.7C1436.9 6320.7 1399.9 6332.1 1390.1 6360.8C1380.7 6388.7 1342.7 6400 1342.7 6400" stroke="#2F75FD" stroke-opacity="0.03" stroke-width="2" stroke-miterlimit="10"/>
<path d="M1436.9 6284.7C1436.9 6284.7 1373.7 6299.4 1357.3 6343.5C1341.4 6386 1277 6400 1277 6400" stroke="#2F75FD" stroke-opacity="0.03" stroke-width="2" stroke-miterlimit="10"/>
<path d="M1436.9 6248.6C1436.9 6248.6 1347.6 6266.7 1324.4 6326.2C1302.3 6383.3 1211.3 6400 1211.3 6400" stroke="#2F75FD" stroke-opacity="0.03" stroke-width="2" stroke-miterlimit="10"/>
<path d="M1436.9 6212.6C1436.9 6212.6 1321.4 6234 1291.6 6308.9C1263.1 6380.7 1145.7 6400 1145.7 6400" stroke="#2F75FD" stroke-opacity="0.03" stroke-width="2" stroke-miterlimit="10"/>
<path d="M1436.9 6176.5C1436.9 6176.5 1295.2 6201.2 1258.7 6291.6C1223.8 6378 1080 6400 1080 6400" stroke="#2F75FD" stroke-opacity="0.03" stroke-width="2" stroke-miterlimit="10"/>
<path d="M1436.9 6140.5C1436.9 6140.5 1269.1 6168.6 1225.9 6274.3C1184.7 6375.3 1014.4 6400 1014.4 6400" stroke="#2F75FD" stroke-opacity="0.03" stroke-width="2" stroke-miterlimit="10"/>
<path d="M1436.9 6104.5C1436.9 6104.5 1242.9 6135.9 1193 6257.1C1145.4 6372.7 948.6 6400 948.6 6400" stroke="#2F75FD" stroke-opacity="0.03" stroke-width="2" stroke-miterlimit="10"/>
<path d="M1436.9 6068.4C1436.9 6068.4 1216.7 6103.1 1160.1 6239.7C1106.2 6370 882.9 6400 882.9 6400" stroke="#2F75FD" stroke-opacity="0.03" stroke-width="2" stroke-miterlimit="10"/>
<path d="M1436.9 6032.4C1436.9 6032.4 1190.6 6070.4 1127.3 6222.5C1067 6367.3 817.2 6400 817.2 6400" stroke="#2F75FD" stroke-opacity="0.03" stroke-width="2" stroke-miterlimit="10"/>
<path d="M1436.9 5996.4C1436.9 5996.4 1164.4 6037.8 1094.4 6205.2C1027.8 6364.7 751.6 6400 751.6 6400" stroke="#2F75FD" stroke-opacity="0.03" stroke-width="2" stroke-miterlimit="10"/>
<path d="M1436.9 5960.3C1436.9 5960.3 1138.2 6005 1061.6 6187.9C988.6 6362 685.9 6400 685.9 6400" stroke="#2F75FD" stroke-opacity="0.03" stroke-width="2" stroke-miterlimit="10"/>
<path d="M1436.9 5924.3C1436.9 5924.3 1112.1 5972.3 1028.7 6170.6C949.4 6359.4 620.2 6400 620.2 6400" stroke="#2F75FD" stroke-opacity="0.03" stroke-width="2" stroke-miterlimit="10"/>
<path d="M1436.9 5888.3C1436.9 5888.3 1085.9 5939.6 995.9 6153.3C910.2 6356.7 554.5 6400 554.5 6400" stroke="#2F75FD" stroke-opacity="0.03" stroke-width="2" stroke-miterlimit="10"/>
<path d="M1436.9 5852.2C1436.9 5852.2 1059.7 5906.9 963 6136C871 6354 488.9 6400 488.9 6400" stroke="#2F75FD" stroke-opacity="0.03" stroke-width="2" stroke-miterlimit="10"/>
<path d="M1436.9 5816.2C1436.9 5816.2 1033.6 5874.2 930.2 6118.7C831.8 6351.4 423.2 6400 423.2 6400" stroke="#2F75FD" stroke-opacity="0.03" stroke-width="2" stroke-miterlimit="10"/>
<path d="M1436.9 5780.2C1436.9 5780.2 1007.4 5841.5 897.3 6101.5C792.6 6348.7 357.5 6400 357.5 6400" stroke="#2F75FD" stroke-opacity="0.03" stroke-width="2" stroke-miterlimit="10"/>
<path d="M1436.9 5744.1C1436.9 5744.1 981.2 5808.8 864.4 6084.1C753.4 6346 291.8 6400 291.8 6400" stroke="#2F75FD" stroke-opacity="0.03" stroke-width="2" stroke-miterlimit="10"/>
<path d="M1436.9 5708.1C1436.9 5708.1 955.1 5776.1 831.6 6066.9C714.2 6343.4 226.1 6400 226.1 6400" stroke="#2F75FD" stroke-opacity="0.03" stroke-width="2" stroke-miterlimit="10"/>
<path d="M1436.9 5672.1C1436.9 5672.1 928.9 5743.4 798.7 6049.6C675 6340.7 160.5 6400 160.5 6400" stroke="#2F75FD" stroke-opacity="0.03" stroke-width="2" stroke-miterlimit="10"/>
<path d="M1436.9 5636C1436.9 5636 902.7 5710.6 765.9 6032.3C635.7 6338 94.8 6400 94.8 6400" stroke="#2F75FD" stroke-opacity="0.03" stroke-width="2" stroke-miterlimit="10"/>
<path d="M1436.9 5600C1436.9 5600 876.6 5678 733 6015C596.5 6335.4 29.1 6400 29.1 6400" stroke="#2F75FD" stroke-opacity="0.03" stroke-width="2" stroke-miterlimit="10"/>
</g>
</g>
<g clip-path="url(#clip16_47_243)">
<rect width="1440" height="800" transform="translate(0 6400)" fill="white"/>
<g clip-path="url(#clip17_47_243)">
<path d="M1440.6 6400H0.599976V7200H1440.6V6400Z" fill="white"/>
<path d="M0.599976 6443.3C0.599976 6443.3 11.4 6435.2 14.5 6422C17.6 6408.8 29.1 6400 29.1 6400" stroke="#2F75FD" stroke-opacity="0.03" stroke-width="2" stroke-miterlimit="10"/>
<path d="M0.599976 6479.3C0.599976 6479.3 37.6 6467.9 47.4 6439.2C56.8 6411.3 94.8 6400 94.8 6400" stroke="#2F75FD" stroke-opacity="0.03" stroke-width="2" stroke-miterlimit="10"/>
<path d="M0.599976 6515.3C0.599976 6515.3 63.8 6500.6 80.2 6456.5C96 6414 160.5 6400 160.5 6400" stroke="#2F75FD" stroke-opacity="0.03" stroke-width="2" stroke-miterlimit="10"/>
<path d="M0.599976 6551.4C0.599976 6551.4 89.9 6533.3 113.1 6473.8C135.2 6416.6 226.1 6400 226.1 6400" stroke="#2F75FD" stroke-opacity="0.03" stroke-width="2" stroke-miterlimit="10"/>
<path d="M0.599976 6587.4C0.599976 6587.4 116.1 6566 145.9 6491.1C174.4 6419.3 291.8 6400 291.8 6400" stroke="#2F75FD" stroke-opacity="0.03" stroke-width="2" stroke-miterlimit="10"/>
<path d="M0.599976 6623.4C0.599976 6623.4 142.3 6598.7 178.8 6508.3C213.6 6422 357.5 6400 357.5 6400" stroke="#2F75FD" stroke-opacity="0.03" stroke-width="2" stroke-miterlimit="10"/>
<path d="M0.599976 6659.5C0.599976 6659.5 168.4 6631.4 211.6 6525.7C252.8 6424.6 423.2 6400 423.2 6400" stroke="#2F75FD" stroke-opacity="0.03" stroke-width="2" stroke-miterlimit="10"/>
<path d="M0.599976 6695.5C0.599976 6695.5 194.6 6664.1 244.5 6542.9C292 6427.3 488.9 6400 488.9 6400" stroke="#2F75FD" stroke-opacity="0.03" stroke-width="2" stroke-miterlimit="10"/>
<path d="M0.599976 6731.5C0.599976 6731.5 220.8 6696.8 277.4 6560.2C331.2 6430 554.5 6400 554.5 6400" stroke="#2F75FD" stroke-opacity="0.03" stroke-width="2" stroke-miterlimit="10"/>
<path d="M0.599976 6767.6C0.599976 6767.6 246.9 6729.6 310.2 6577.5C370.5 6432.6 620.2 6400 620.2 6400" stroke="#2F75FD" stroke-opacity="0.03" stroke-width="2" stroke-miterlimit="10"/>
<path d="M0.599976 6803.6C0.599976 6803.6 273.1 6762.2 343.1 6594.8C409.7 6435.3 685.9 6400 685.9 6400" stroke="#2F75FD" stroke-opacity="0.03" stroke-width="2" stroke-miterlimit="10"/>
<path d="M0.599976 6839.6C0.599976 6839.6 299.3 6794.9 375.9 6612C448.9 6438 751.6 6400 751.6 6400" stroke="#2F75FD" stroke-opacity="0.03" stroke-width="2" stroke-miterlimit="10"/>
<path d="M0.599976 6875.7C0.599976 6875.7 325.4 6827.7 408.8 6629.4C488.1 6440.6 817.2 6400 817.2 6400" stroke="#2F75FD" stroke-opacity="0.03" stroke-width="2" stroke-miterlimit="10"/>
<path d="M0.599976 6911.7C0.599976 6911.7 351.6 6860.4 441.6 6646.7C527.3 6443.3 882.9 6400 882.9 6400" stroke="#2F75FD" stroke-opacity="0.03" stroke-width="2" stroke-miterlimit="10"/>
<path d="M0.599976 6947.8C0.599976 6947.8 377.8 6893.1 474.5 6664C566.5 6446 948.6 6400 948.6 6400" stroke="#2F75FD" stroke-opacity="0.03" stroke-width="2" stroke-miterlimit="10"/>
<path d="M0.599976 6983.8C0.599976 6983.8 403.9 6925.8 507.3 6681.3C605.7 6448.6 1014.3 6400 1014.3 6400" stroke="#2F75FD" stroke-opacity="0.03" stroke-width="2" stroke-miterlimit="10"/>
<path d="M0.599976 7019.8C0.599976 7019.8 430.1 6958.5 540.2 6698.5C644.9 6451.3 1080 6400 1080 6400" stroke="#2F75FD" stroke-opacity="0.03" stroke-width="2" stroke-miterlimit="10"/>
<path d="M0.599976 7055.9C0.599976 7055.9 456.3 6991.2 573.1 6715.9C684.1 6454 1145.6 6400 1145.6 6400" stroke="#2F75FD" stroke-opacity="0.03" stroke-width="2" stroke-miterlimit="10"/>
<path d="M0.599976 7091.9C0.599976 7091.9 482.4 7023.9 605.9 6733.1C723.3 6456.6 1211.3 6400 1211.3 6400" stroke="#2F75FD" stroke-opacity="0.03" stroke-width="2" stroke-miterlimit="10"/>
<path d="M0.599976 7127.9C0.599976 7127.9 508.6 7056.6 638.8 6750.4C762.5 6459.3 1277 6400 1277 6400" stroke="#2F75FD" stroke-opacity="0.03" stroke-width="2" stroke-miterlimit="10"/>
<path d="M0.599976 7164C0.599976 7164 534.8 7089.4 671.6 6767.7C801.7 6462 1342.7 6400 1342.7 6400" stroke="#2F75FD" stroke-opacity="0.03" stroke-width="2" stroke-miterlimit="10"/>
<path d="M0.599976 7200C0.599976 7200 560.9 7122 704.5 6785C840.9 6464.6 1408.3 6400 1408.3 6400" stroke="#2F75FD" stroke-opacity="0.03" stroke-width="2" stroke-miterlimit="10"/>
<path d="M1436.9 7156.7C1436.9 7156.7 1426.1 7164.8 1423 7178C1419.9 7191.3 1408.4 7199.9 1408.4 7199.9" stroke="#2F75FD" stroke-opacity="0.03" stroke-width="2" stroke-miterlimit="10"/>
<path d="M1436.9 7120.7C1436.9 7120.7 1399.9 7132.1 1390.1 7160.8C1380.7 7188.7 1342.7 7200 1342.7 7200" stroke="#2F75FD" stroke-opacity="0.03" stroke-width="2" stroke-miterlimit="10"/>
<path d="M1436.9 7084.7C1436.9 7084.7 1373.7 7099.4 1357.3 7143.5C1341.4 7186 1277 7200 1277 7200" stroke="#2F75FD" stroke-opacity="0.03" stroke-width="2" stroke-miterlimit="10"/>
<path d="M1436.9 7048.6C1436.9 7048.6 1347.6 7066.7 1324.4 7126.2C1302.3 7183.3 1211.3 7200 1211.3 7200" stroke="#2F75FD" stroke-opacity="0.03" stroke-width="2" stroke-miterlimit="10"/>
<path d="M1436.9 7012.6C1436.9 7012.6 1321.4 7034 1291.6 7108.9C1263.1 7180.7 1145.7 7200 1145.7 7200" stroke="#2F75FD" stroke-opacity="0.03" stroke-width="2" stroke-miterlimit="10"/>
<path d="M1436.9 6976.5C1436.9 6976.5 1295.2 7001.2 1258.7 7091.6C1223.8 7178 1080 7200 1080 7200" stroke="#2F75FD" stroke-opacity="0.03" stroke-width="2" stroke-miterlimit="10"/>
<path d="M1436.9 6940.5C1436.9 6940.5 1269.1 6968.6 1225.9 7074.3C1184.7 7175.3 1014.4 7200 1014.4 7200" stroke="#2F75FD" stroke-opacity="0.03" stroke-width="2" stroke-miterlimit="10"/>
<path d="M1436.9 6904.5C1436.9 6904.5 1242.9 6935.9 1193 7057.1C1145.4 7172.7 948.6 7200 948.6 7200" stroke="#2F75FD" stroke-opacity="0.03" stroke-width="2" stroke-miterlimit="10"/>
<path d="M1436.9 6868.4C1436.9 6868.4 1216.7 6903.1 1160.1 7039.7C1106.2 7170 882.9 7200 882.9 7200" stroke="#2F75FD" stroke-opacity="0.03" stroke-width="2" stroke-miterlimit="10"/>
<path d="M1436.9 6832.4C1436.9 6832.4 1190.6 6870.4 1127.3 7022.5C1067 7167.3 817.2 7200 817.2 7200" stroke="#2F75FD" stroke-opacity="0.03" stroke-width="2" stroke-miterlimit="10"/>
<path d="M1436.9 6796.4C1436.9 6796.4 1164.4 6837.8 1094.4 7005.2C1027.8 7164.7 751.6 7200 751.6 7200" stroke="#2F75FD" stroke-opacity="0.03" stroke-width="2" stroke-miterlimit="10"/>
<path d="M1436.9 6760.3C1436.9 6760.3 1138.2 6805 1061.6 6987.9C988.6 7162 685.9 7200 685.9 7200" stroke="#2F75FD" stroke-opacity="0.03" stroke-width="2" stroke-miterlimit="10"/>
<path d="M1436.9 6724.3C1436.9 6724.3 1112.1 6772.3 1028.7 6970.6C949.4 7159.4 620.2 7200 620.2 7200" stroke="#2F75FD" stroke-opacity="0.03" stroke-width="2" stroke-miterlimit="10"/>
<path d="M1436.9 6688.3C1436.9 6688.3 1085.9 6739.6 995.9 6953.3C910.2 7156.7 554.5 7200 554.5 7200" stroke="#2F75FD" stroke-opacity="0.03" stroke-width="2" stroke-miterlimit="10"/>
<path d="M1436.9 6652.2C1436.9 6652.2 1059.7 6706.9 963 6936C871 7154 488.9 7200 488.9 7200" stroke="#2F75FD" stroke-opacity="0.03" stroke-width="2" stroke-miterlimit="10"/>
<path d="M1436.9 6616.2C1436.9 6616.2 1033.6 6674.2 930.2 6918.7C831.8 7151.4 423.2 7200 423.2 7200" stroke="#2F75FD" stroke-opacity="0.03" stroke-width="2" stroke-miterlimit="10"/>
<path d="M1436.9 6580.2C1436.9 6580.2 1007.4 6641.5 897.3 6901.5C792.6 7148.7 357.5 7200 357.5 7200" stroke="#2F75FD" stroke-opacity="0.03" stroke-width="2" stroke-miterlimit="10"/>
<path d="M1436.9 6544.1C1436.9 6544.1 981.2 6608.8 864.4 6884.1C753.4 7146 291.8 7200 291.8 7200" stroke="#2F75FD" stroke-opacity="0.03" stroke-width="2" stroke-miterlimit="10"/>
<path d="M1436.9 6508.1C1436.9 6508.1 955.1 6576.1 831.6 6866.9C714.2 7143.4 226.1 7200 226.1 7200" stroke="#2F75FD" stroke-opacity="0.03" stroke-width="2" stroke-miterlimit="10"/>
<path d="M1436.9 6472.1C1436.9 6472.1 928.9 6543.4 798.7 6849.6C675 7140.7 160.5 7200 160.5 7200" stroke="#2F75FD" stroke-opacity="0.03" stroke-width="2" stroke-miterlimit="10"/>
<path d="M1436.9 6436C1436.9 6436 902.7 6510.6 765.9 6832.3C635.7 7138 94.8 7200 94.8 7200" stroke="#2F75FD" stroke-opacity="0.03" stroke-width="2" stroke-miterlimit="10"/>
<path d="M1436.9 6400C1436.9 6400 876.6 6478 733 6815C596.5 7135.4 29.1 7200 29.1 7200" stroke="#2F75FD" stroke-opacity="0.03" stroke-width="2" stroke-miterlimit="10"/>
</g>
</g>
<defs>
<clipPath id="clip0_47_243">
<rect width="1440" height="800" fill="white"/>
</clipPath>
<clipPath id="clip1_47_243">
<rect width="1440.6" height="802" fill="white" transform="translate(0 -1)"/>
</clipPath>
<clipPath id="clip2_47_243">
<rect width="1440" height="800" fill="white" transform="translate(0 800)"/>
</clipPath>
<clipPath id="clip3_47_243">
<rect width="1440.6" height="802" fill="white" transform="translate(0 799)"/>
</clipPath>
<clipPath id="clip4_47_243">
<rect width="1440" height="800" fill="white" transform="translate(0 1600)"/>
</clipPath>
<clipPath id="clip5_47_243">
<rect width="1440.6" height="802" fill="white" transform="translate(0 1599)"/>
</clipPath>
<clipPath id="clip6_47_243">
<rect width="1440" height="800" fill="white" transform="translate(0 2400)"/>
</clipPath>
<clipPath id="clip7_47_243">
<rect width="1440.6" height="802" fill="white" transform="translate(0 2399)"/>
</clipPath>
<clipPath id="clip8_47_243">
<rect width="1440" height="800" fill="white" transform="translate(0 3200)"/>
</clipPath>
<clipPath id="clip9_47_243">
<rect width="1440.6" height="802" fill="white" transform="translate(0 3199)"/>
</clipPath>
<clipPath id="clip10_47_243">
<rect width="1440" height="800" fill="white" transform="translate(0 4000)"/>
</clipPath>
<clipPath id="clip11_47_243">
<rect width="1440.6" height="802" fill="white" transform="translate(0 3999)"/>
</clipPath>
<clipPath id="clip12_47_243">
<rect width="1440" height="800" fill="white" transform="translate(0 4800)"/>
</clipPath>
<clipPath id="clip13_47_243">
<rect width="1440.6" height="802" fill="white" transform="translate(0 4799)"/>
</clipPath>
<clipPath id="clip14_47_243">
<rect width="1440" height="800" fill="white" transform="translate(0 5600)"/>
</clipPath>
<clipPath id="clip15_47_243">
<rect width="1440.6" height="802" fill="white" transform="translate(0 5599)"/>
</clipPath>
<clipPath id="clip16_47_243">
<rect width="1440" height="800" fill="white" transform="translate(0 6400)"/>
</clipPath>
<clipPath id="clip17_47_243">
<rect width="1440.6" height="802" fill="white" transform="translate(0 6399)"/>
</clipPath>
</defs>
</svg>
