<svg width="100" height="100" viewBox="0 0 100 100" fill="none" xmlns="http://www.w3.org/2000/svg">
<circle cx="50" cy="50" r="50" fill="#FFDA15"/>
<path fill-rule="evenodd" clip-rule="evenodd" d="M27.3501 53.0168C28.2613 52.1055 29.7387 52.1055 30.6499 53.0168L38.3333 60.7002C39.2446 61.6114 39.2446 63.0888 38.3333 64C37.4221 64.9112 35.9447 64.9112 35.0335 64L27.3501 56.3166C26.4389 55.4054 26.4389 53.928 27.3501 53.0168Z" fill="#111315"/>
<path d="M72.7144 35.2493C73.5885 34.3024 73.5294 32.8262 72.5825 31.9521C71.6356 31.0781 70.1594 31.1371 69.2853 32.084L42.868 60.7028C41.9939 61.6497 42.053 63.1259 42.9999 64C43.9468 64.8741 45.423 64.8151 46.2971 63.8681L62.4037 46.4193C62.8531 45.9324 63.6173 45.9172 64.0859 46.3857L67.0168 49.3166C67.928 50.2278 69.4054 50.2278 70.3166 49.3166C71.2278 48.4054 71.2278 46.928 70.3166 46.0168L67.1877 42.8879C66.7449 42.4451 66.7307 41.7317 67.1554 41.2716L72.7144 35.2493Z" fill="#111315"/>
<path fill-rule="evenodd" clip-rule="evenodd" d="M35.7169 52.0502L31.6164 47.9497C28.8827 45.2161 28.8827 40.7839 31.6164 38.0502L40.3836 29.2831C43.1173 26.5494 47.5494 26.5494 50.2831 29.2831L54.3836 33.3836C57.1172 36.1172 57.1173 40.5494 54.3836 43.2831L45.6164 52.0503C42.8827 54.7839 38.4506 54.7839 35.7169 52.0502ZM34.9162 44.6499L39.0167 48.7504C39.928 49.6616 41.4054 49.6616 42.3166 48.7504L51.0837 39.9832C51.995 39.072 51.995 37.5946 51.0837 36.6834L46.9832 32.5829C46.072 31.6717 44.5946 31.6717 43.6834 32.5829L34.9162 41.3501C34.005 42.2613 34.005 43.7387 34.9162 44.6499Z" fill="#111315"/>
<path fill-rule="evenodd" clip-rule="evenodd" d="M40.6667 68.6667C41.9553 68.6667 43 67.622 43 66.3333C43 65.0447 41.9553 64 40.6667 64C39.378 64 38.3333 65.0447 38.3333 66.3333C38.3333 67.622 39.378 68.6667 40.6667 68.6667ZM40.6667 73.3333C44.5327 73.3333 47.6667 70.1993 47.6667 66.3333C47.6667 62.4674 44.5327 59.3333 40.6667 59.3333C36.8007 59.3333 33.6667 62.4674 33.6667 66.3333C33.6667 70.1993 36.8007 73.3333 40.6667 73.3333Z" fill="#111315"/>
</svg>
