<svg width="101" height="100" viewBox="0 0 101 100" fill="none" xmlns="http://www.w3.org/2000/svg">
<circle cx="50.5" cy="50" r="50" fill="#FFDA15"/>
<path fill-rule="evenodd" clip-rule="evenodd" d="M22 38.3333C22 34.4674 25.134 31.3333 29 31.3333H47.6667C51.5327 31.3333 54.6667 34.4674 54.6667 38.3333V59.3333C54.6667 61.9107 52.5773 64 50 64H40.6667V59.3333H48.8333C49.4777 59.3333 50 58.811 50 58.1667V38.3333C50 37.0447 48.9553 36 47.6667 36H29C27.7113 36 26.6667 37.0447 26.6667 38.3333V57C26.6667 58.2887 27.7113 59.3333 29 59.3333H31.3333V64H29C25.134 64 22 60.866 22 57V38.3333Z" fill="#111315"/>
<path fill-rule="evenodd" clip-rule="evenodd" d="M50 38.3333H64.5252C66.2701 38.3333 67.9521 38.985 69.2415 40.1607L75.7163 46.0641C77.171 47.3905 78 49.2681 78 51.2368V57C78 60.866 74.866 64 71 64H68.6667V59.3333H71C72.2887 59.3333 73.3333 58.2887 73.3333 57V51.2368C73.3333 50.5806 73.057 49.9547 72.5721 49.5126L66.0973 43.6091C65.6675 43.2172 65.1069 43 64.5252 43H57C55.7113 43 54.6667 44.0447 54.6667 45.3333V58.1667C54.6667 58.811 55.189 59.3333 55.8333 59.3333H59.3333V64H50V38.3333Z" fill="#111315"/>
<path fill-rule="evenodd" clip-rule="evenodd" d="M36 64C37.2887 64 38.3333 62.9553 38.3333 61.6667C38.3333 60.378 37.2887 59.3333 36 59.3333C34.7113 59.3333 33.6667 60.378 33.6667 61.6667C33.6667 62.9553 34.7113 64 36 64ZM36 68.6667C39.866 68.6667 43 65.5326 43 61.6667C43 57.8007 39.866 54.6667 36 54.6667C32.134 54.6667 29 57.8007 29 61.6667C29 65.5326 32.134 68.6667 36 68.6667Z" fill="#111315"/>
<path fill-rule="evenodd" clip-rule="evenodd" d="M64 64C65.2887 64 66.3333 62.9553 66.3333 61.6667C66.3333 60.378 65.2887 59.3333 64 59.3333C62.7113 59.3333 61.6667 60.378 61.6667 61.6667C61.6667 62.9553 62.7113 64 64 64ZM64 68.6667C67.866 68.6667 71 65.5326 71 61.6667C71 57.8007 67.866 54.6667 64 54.6667C60.134 54.6667 57 57.8007 57 61.6667C57 65.5326 60.134 68.6667 64 68.6667Z" fill="#111315"/>
</svg>
