<svg width="101" height="100" viewBox="0 0 101 100" fill="none" xmlns="http://www.w3.org/2000/svg">
<circle cx="50.5" cy="50" r="50" fill="#FFDA15"/>
<path d="M43.5841 47.757C47.4811 47.757 50.6402 44.5979 50.6402 40.7009C50.6402 36.804 47.4811 33.6449 43.5841 33.6449C39.6871 33.6449 36.528 36.804 36.528 40.7009C36.528 44.5979 39.6871 47.757 43.5841 47.757Z" stroke="black" stroke-width="4" stroke-linecap="round" stroke-linejoin="round"/>
<path d="M29.3551 67.2897V63.271C29.3551 58.5981 33.1402 54.8131 37.8131 54.8131H50.4766C55.1495 54.8131 58.9346 58.5981 58.9346 63.271V67.2897" stroke="black" stroke-width="4" stroke-linecap="round" stroke-linejoin="round"/>
<path d="M61.2009 49.7664C64.0914 49.7664 66.4346 47.4232 66.4346 44.5327C66.4346 41.6422 64.0914 39.2991 61.2009 39.2991C58.3105 39.2991 55.9673 41.6422 55.9673 44.5327C55.9673 47.4232 58.3105 49.7664 61.2009 49.7664Z" stroke="black" stroke-width="4" stroke-linecap="round" stroke-linejoin="round"/>
<path d="M62.6963 55H66.2944C69.7523 55 72.5561 57.8037 72.5561 61.2617V64.2523" stroke="black" stroke-width="4" stroke-linecap="round" stroke-linejoin="round"/>
</svg>
