<svg width="51" height="50" viewBox="0 0 51 50" fill="none" xmlns="http://www.w3.org/2000/svg">
<path d="M30.4792 19.9585L20.3333 30.1043" stroke="#FFDA15" stroke-width="4" stroke-linecap="round" stroke-linejoin="round"/>
<path d="M19.0833 15.9585C17.625 15.9585 16.4583 17.146 16.4583 18.5835C16.4583 20.0418 17.6458 21.2085 19.0833 21.2085C20.5208 21.2085 21.7083 20.021 21.7083 18.5835C21.7292 17.146 20.5417 15.9585 19.0833 15.9585Z" fill="#FFDA15"/>
<path d="M31.9167 28.771C30.4583 28.771 29.2917 29.9585 29.2917 31.396C29.2917 32.8543 30.4792 34.021 31.9167 34.021C33.3542 34.021 34.5417 32.8335 34.5417 31.396C34.5417 29.9585 33.375 28.771 31.9167 28.771Z" fill="#FFDA15"/>
<path d="M43.0833 32.9165H43.0625C44.1458 30.4998 44.7708 27.8123 44.7708 24.9998C44.7708 14.354 36.1458 5.729 25.5 5.729C14.8542 5.729 6.22916 14.354 6.22916 24.9998C6.22916 35.6457 14.8542 44.2707 25.5 44.2707C28.6458 44.2707 31.625 43.4998 34.25 42.1665L44.6667 43.7082L43.0833 32.9165Z" stroke="#FFDA15" stroke-width="4" stroke-linecap="round" stroke-linejoin="round"/>
</svg>
