<svg width="51" height="50" viewBox="0 0 51 50" fill="none" xmlns="http://www.w3.org/2000/svg">
<path d="M25.8333 30.3538C28.7903 30.3538 31.1875 27.9567 31.1875 24.9997C31.1875 22.0426 28.7903 19.6455 25.8333 19.6455C22.8763 19.6455 20.4791 22.0426 20.4791 24.9997C20.4791 27.9567 22.8763 30.3538 25.8333 30.3538Z" stroke="#FFDA15" stroke-width="4" stroke-linecap="round" stroke-linejoin="round"/>
<path fill-rule="evenodd" clip-rule="evenodd" d="M43.5833 17.229L41.4374 13.5207C40.5416 11.979 38.5833 11.4582 37.0416 12.354L35.9791 12.9582C33.8333 14.1873 31.1666 12.6457 31.1666 10.1665V8.93734C31.1666 7.16651 29.7291 5.729 27.9583 5.729H23.6666C21.8958 5.729 20.4583 7.16651 20.4583 8.93734V10.1665C20.4583 12.6457 17.7916 14.1873 15.6458 12.9582L14.5833 12.354C13.0416 11.4582 11.0833 11.9998 10.1874 13.5207L8.0416 17.229C7.14577 18.7707 7.68743 20.729 9.20826 21.6248L10.2708 22.229C12.4166 23.4582 12.4166 26.5623 10.2708 27.7915L9.20826 28.3957C7.6666 29.2915 7.14577 31.2498 8.0416 32.7915L10.1874 36.4998C11.0833 38.0415 13.0416 38.5623 14.5833 37.6665L15.6458 37.0623C17.7916 35.8332 20.4583 37.3748 20.4583 39.854V41.0832C20.4583 42.854 21.8958 44.2915 23.6666 44.2915H27.9583C29.7291 44.2915 31.1666 42.854 31.1666 41.0832V39.854C31.1666 37.3748 33.8333 35.8332 35.9791 37.0623L37.0416 37.6665C38.5833 38.5623 40.5416 38.0207 41.4374 36.4998L43.5833 32.7915C44.4791 31.2498 43.9374 29.2915 42.4166 28.3957L41.3541 27.7915C39.2083 26.5623 39.2083 23.4582 41.3541 22.229L42.4166 21.6248C43.9583 20.729 44.4791 18.7498 43.5833 17.229Z" stroke="#FFDA15" stroke-width="4" stroke-linecap="round" stroke-linejoin="round"/>
</svg>
