<svg width="51" height="50" viewBox="0 0 51 50" fill="none" xmlns="http://www.w3.org/2000/svg">
<path d="M29.9583 35.0835C29.4375 35.3543 28.875 35.5627 28.25 35.646C28 35.6877 27.7292 35.7085 27.4792 35.7085H19.25" stroke="#FFDA15" stroke-width="4" stroke-linecap="round" stroke-linejoin="round"/>
<path d="M10.6875 35.6875C8.29166 35.5417 6.39583 33.8125 6.39583 31.7292V13.9583C6.39583 11.7708 8.47916 10 11.0208 10H27.4583C30 10 32.0833 11.7708 32.0833 13.9583V31.3958" stroke="#FFDA15" stroke-width="4" stroke-linecap="round" stroke-linejoin="round"/>
<path d="M32.0833 31.9167V19.0625C32.0833 17.6042 33.5208 16.4375 35.2916 16.4375H37.0208C37.9583 16.4375 38.8333 16.7708 39.4583 17.3542L44.1458 21.8333C44.6458 22.3125 44.9166 22.9167 44.9166 23.5417V33.0833C44.9166 34.5417 43.4792 35.7083 41.7083 35.7083H38.5" stroke="#FFDA15" stroke-width="4" stroke-linecap="round" stroke-linejoin="round"/>
<path d="M44.4167 23.4375L32.9583 23.4375" stroke="#FFDA15" stroke-width="4" stroke-linecap="round" stroke-linejoin="round"/>
<path d="M14.9583 39.9998C17.3285 39.9998 19.25 38.0784 19.25 35.7082C19.25 33.3379 17.3285 31.4165 14.9583 31.4165C12.5881 31.4165 10.6666 33.3379 10.6666 35.7082C10.6666 38.0784 12.5881 39.9998 14.9583 39.9998Z" stroke="#FFDA15" stroke-width="4" stroke-linecap="round" stroke-linejoin="round"/>
<path d="M34.2291 39.9998C36.5994 39.9998 38.5209 38.0784 38.5209 35.7082C38.5209 33.3379 36.5994 31.4165 34.2291 31.4165C31.8589 31.4165 29.9375 33.3379 29.9375 35.7082C29.9375 38.0784 31.8589 39.9998 34.2291 39.9998Z" stroke="#FFDA15" stroke-width="4" stroke-linecap="round" stroke-linejoin="round"/>
</svg>
