<svg width="51" height="50" viewBox="0 0 51 50" fill="none" xmlns="http://www.w3.org/2000/svg">
<path d="M35.9167 6.24982C36.4638 5.70264 37.1134 5.2686 37.8283 4.97247C38.5433 4.67634 39.3095 4.52393 40.0833 4.52393C40.8571 4.52393 41.6234 4.67634 42.3383 4.97247C43.0532 5.2686 43.7028 5.70264 44.25 6.24982C44.7972 6.79699 45.2312 7.44658 45.5273 8.1615C45.8235 8.87642 45.9759 9.64266 45.9759 10.4165C45.9759 11.1903 45.8235 11.9565 45.5273 12.6715C45.2312 13.3864 44.7972 14.036 44.25 14.5831L16.125 42.7081L4.66666 45.8331L7.79166 34.3748L35.9167 6.24982Z" stroke="#FFDA15" stroke-width="4" stroke-linecap="round" stroke-linejoin="round"/>
</svg>
