<svg width="62" height="517" viewBox="0 0 62 517" fill="none" xmlns="http://www.w3.org/2000/svg">
<path d="M37.9231 119.589L32.7862 122.419L32.7862 123.214L37.9231 123.214L37.9231 126.529L24.3151 126.529L24.3151 120.966C24.3151 119.893 24.5025 118.982 24.8772 118.232C25.252 117.47 25.7689 116.901 26.428 116.526C27.0742 116.152 27.7979 115.964 28.5991 115.964C29.5037 115.964 30.3114 116.223 31.0222 116.74C31.7329 117.244 32.2369 117.993 32.5342 118.988L37.9231 115.848L37.9231 119.589ZM30.4406 123.214L30.4406 121.159C30.4406 120.552 30.292 120.1 29.9948 119.802C29.6976 119.492 29.2776 119.337 28.7348 119.337C28.2179 119.337 27.8108 119.492 27.5136 119.802C27.2163 120.1 27.0677 120.552 27.0677 121.159L27.0677 123.214L30.4406 123.214ZM26.9708 110.569L29.7234 110.569L29.7234 106.13L32.2822 106.13L32.2822 110.569L35.2674 110.569L35.2674 105.548L37.9231 105.548L37.9231 113.884L24.3151 113.884L24.3151 105.548L26.9708 105.548L26.9708 110.569ZM28.6185 94.3629C28.1662 94.6085 27.8237 94.9638 27.5911 95.4291C27.3456 95.8814 27.2228 96.4177 27.2228 97.038C27.2228 98.1106 27.5782 98.97 28.2889 99.6161C28.9868 100.262 29.9237 100.585 31.0997 100.585C32.3532 100.585 33.3354 100.249 34.0462 99.5774C34.744 98.8925 35.0929 97.9555 35.0929 96.7666C35.0929 95.9525 34.8862 95.2675 34.4726 94.7118C34.0591 94.1432 33.4646 93.7297 32.6892 93.4712L32.6892 97.6777L30.2468 97.6777L30.2468 90.4666L33.3289 90.4666C34.156 90.7121 34.9249 91.1321 35.6357 91.7266C36.3465 92.3081 36.9216 93.0512 37.3609 93.9558C37.8003 94.8604 38.02 95.8814 38.02 97.0186C38.02 98.3626 37.7292 99.5645 37.1477 100.624C36.5532 101.671 35.7326 102.492 34.6859 103.086C33.6391 103.668 32.4437 103.958 31.0997 103.958C29.7557 103.958 28.5603 103.668 27.5136 103.086C26.4539 102.492 25.6332 101.671 25.0517 100.624C24.4572 99.5774 24.16 98.382 24.16 97.038C24.16 95.4097 24.5542 94.0398 25.3425 92.9284C26.1308 91.8041 27.2228 91.0611 28.6185 90.6992L28.6185 94.3629ZM24.3151 85.3157L37.9231 85.3157L37.9231 88.6305L24.3151 88.6305L24.3151 85.3157ZM38.0588 76.4779C38.0588 77.7573 37.7616 78.9333 37.1671 80.0059C36.5726 81.0656 35.7456 81.912 34.6859 82.5453C33.6132 83.1656 32.4114 83.4757 31.0803 83.4757C29.7492 83.4757 28.5539 83.1656 27.4942 82.5453C26.4345 81.912 25.6074 81.0656 25.0129 80.0059C24.4185 78.9333 24.1212 77.7573 24.1212 76.4779C24.1212 75.1985 24.4185 74.029 25.0129 72.9693C25.6074 71.8966 26.4345 71.0566 27.4942 70.4493C28.5539 69.829 29.7492 69.5188 31.0803 69.5188C32.4114 69.5188 33.6132 69.829 34.6859 70.4493C35.7456 71.0696 36.5726 71.9096 37.1671 72.9693C37.7616 74.029 38.0588 75.1985 38.0588 76.4779ZM35.0348 76.4779C35.0348 75.3923 34.6729 74.5265 33.9492 73.8803C33.2256 73.2213 32.2692 72.8917 31.0803 72.8917C29.8785 72.8917 28.9222 73.2213 28.2114 73.8803C27.4877 74.5265 27.1259 75.3923 27.1259 76.4779C27.1259 77.5763 27.4812 78.4551 28.192 79.1142C28.9028 79.7603 29.8656 80.0834 31.0803 80.0834C32.2822 80.0834 33.2449 79.7603 33.9686 79.1142C34.6794 78.4551 35.0348 77.5763 35.0348 76.4779ZM37.9231 55.5011L37.9231 58.8159L29.5296 64.3599L37.9231 64.3599L37.9231 67.6747L24.3151 67.6747L24.3151 64.3599L32.7474 58.8159L24.3151 58.8159L24.3151 55.5011L37.9231 55.5011Z" fill="#FFDA15"/>
<path d="M28.6185 44.0651C28.1662 44.3107 27.8237 44.6661 27.5911 45.1313C27.3456 45.5836 27.2228 46.1199 27.2228 46.7402C27.2228 47.8128 27.5782 48.6722 28.2889 49.3184C28.9868 49.9645 29.9237 50.2876 31.0997 50.2876C32.3532 50.2876 33.3354 49.9516 34.0462 49.2796C34.744 48.5947 35.0929 47.6577 35.0929 46.4688C35.0929 45.6547 34.8862 44.9697 34.4726 44.4141C34.0591 43.8454 33.4646 43.4319 32.6892 43.1734L32.6892 47.3799L30.2468 47.3799L30.2468 40.1688L33.3289 40.1688C34.156 40.4144 34.9249 40.8344 35.6357 41.4288C36.3465 42.0104 36.9216 42.7534 37.3609 43.6581C37.8003 44.5627 38.02 45.5836 38.02 46.7208C38.02 48.0648 37.7292 49.2667 37.1477 50.3264C36.5532 51.3731 35.7326 52.1937 34.6859 52.7882C33.6391 53.3697 32.4437 53.6605 31.0997 53.6605C29.7557 53.6605 28.5603 53.3697 27.5136 52.7882C26.4539 52.1937 25.6332 51.3731 25.0517 50.3264C24.4572 49.2796 24.16 48.0842 24.16 46.7402C24.16 45.1119 24.5542 43.7421 25.3425 42.6307C26.1308 41.5064 27.2228 40.7633 28.6185 40.4014L28.6185 44.0651ZM37.9231 31.393L32.7862 34.2232L32.7862 35.018L37.9231 35.018L37.9231 38.3327L24.3151 38.3327L24.3151 32.7694C24.3151 31.6967 24.5025 30.7857 24.8772 30.0361C25.252 29.2737 25.7689 28.705 26.428 28.3303C27.0742 27.9555 27.7979 27.7681 28.5991 27.7681C29.5037 27.7681 30.3114 28.0266 31.0222 28.5435C31.7329 29.0475 32.2369 29.797 32.5342 30.7921L37.9231 27.6518L37.9231 31.393ZM30.4406 35.018L30.4406 32.9632C30.4406 32.3558 30.292 31.9035 29.9948 31.6063C29.6976 31.2961 29.2776 31.141 28.7348 31.141C28.2179 31.141 27.8108 31.2961 27.5136 31.6063C27.2163 31.9035 27.0677 32.3558 27.0677 32.9632L27.0677 35.018L30.4406 35.018ZM24.3151 22.4307L32.4566 22.4307C33.2708 22.4307 33.8976 22.2304 34.3369 21.8298C34.7763 21.4292 34.996 20.8412 34.996 20.0658C34.996 19.2904 34.7763 18.6959 34.3369 18.2824C33.8976 17.8688 33.2708 17.6621 32.4566 17.6621L24.3151 17.6621L24.3151 14.3473L32.4372 14.3473C33.652 14.3473 34.6794 14.6058 35.5194 15.1227C36.3594 15.6396 36.9926 16.3375 37.4191 17.2162C37.8456 18.0821 38.0588 19.0513 38.0588 20.1239C38.0588 21.1965 37.852 22.1593 37.4385 23.0122C37.012 23.8522 36.3788 24.5178 35.5388 25.0088C34.6859 25.4999 33.652 25.7455 32.4372 25.7455L24.3151 25.7455L24.3151 22.4307ZM35.2092 8.49163L35.2092 2.63748L37.9231 2.63748L37.9231 12.2522L35.4031 12.2522L27.0289 6.43686L27.0289 12.2523L24.3151 12.2523L24.3151 2.63748L26.8351 2.63748L35.2092 8.49163Z" fill="white"/>
<path d="M14.3846 67.4999L14.3846 133.269L47.6154 133.269L47.6154 106.269" stroke="#FCFCFC" stroke-width="2.76923"/>
<path d="M47.6154 95.8846L47.6154 3.1154" stroke="white" stroke-width="2.76923"/>
<path d="M16.1342 63.4874L16.1342 61.6264L17.2308 61.6264L17.2308 64.908L11.3988 64.908L11.3988 63.4874L16.1342 63.4874ZM17.2972 58.8387C17.2972 59.2929 17.2003 59.7027 17.0065 60.0682C16.8126 60.4282 16.5357 60.7135 16.1757 60.9239C15.8157 61.1289 15.3948 61.2313 14.9129 61.2313C14.4366 61.2313 14.0185 61.1261 13.6585 60.9156C13.2929 60.7052 13.0132 60.4172 12.8194 60.0516C12.6255 59.6861 12.5286 59.2762 12.5286 58.8221C12.5286 58.3679 12.6255 57.9581 12.8194 57.5925C13.0132 57.227 13.2929 56.939 13.6585 56.7285C14.0185 56.5181 14.4366 56.4129 14.9129 56.4129C15.3892 56.4129 15.8102 56.5209 16.1757 56.7369C16.5357 56.9473 16.8126 57.2381 17.0065 57.6092C17.2003 57.9747 17.2972 58.3845 17.2972 58.8387ZM16.0677 58.8387C16.0677 58.5673 15.968 58.3375 15.7686 58.1492C15.5692 57.9553 15.284 57.8584 14.9129 57.8584C14.5419 57.8584 14.2566 57.9525 14.0572 58.1409C13.8579 58.3236 13.7582 58.5507 13.7582 58.8221C13.7582 59.099 13.8579 59.3289 14.0572 59.5116C14.2511 59.6944 14.5363 59.7858 14.9129 59.7858C15.284 59.7858 15.5692 59.6972 15.7686 59.5199C15.968 59.3372 16.0677 59.1101 16.0677 58.8387ZM12.5286 53.898C12.5286 53.5712 12.5951 53.286 12.728 53.0423C12.8609 52.793 13.0354 52.602 13.2514 52.469L12.5951 52.469L12.5951 51.0484L17.2225 51.0484C17.6489 51.0484 18.0339 51.1343 18.3772 51.306C18.7262 51.4721 19.0031 51.7297 19.208 52.0786C19.4129 52.422 19.5154 52.8512 19.5154 53.3663C19.5154 54.053 19.352 54.6097 19.0252 55.0361C18.704 55.4626 18.2665 55.7063 17.7126 55.7672L17.7126 54.3632C17.8899 54.3189 18.0283 54.2137 18.128 54.0475C18.2332 53.8813 18.2859 53.6764 18.2859 53.4327C18.2859 53.1392 18.2 52.9066 18.0283 52.7349C17.8622 52.5577 17.5935 52.469 17.2225 52.469L16.5662 52.469C16.7822 52.6075 16.9594 52.7986 17.0979 53.0423C17.2308 53.286 17.2972 53.5712 17.2972 53.898C17.2972 54.2801 17.2003 54.6263 17.0065 54.9364C16.8071 55.2466 16.5274 55.493 16.1674 55.6758C15.8019 55.853 15.3809 55.9417 14.9046 55.9417C14.4283 55.9417 14.0102 55.853 13.6502 55.6758C13.2902 55.493 13.0132 55.2466 12.8194 54.9364C12.6255 54.6263 12.5286 54.2801 12.5286 53.898ZM14.9129 52.469C14.5585 52.469 14.2788 52.5687 14.0739 52.7681C13.8689 52.962 13.7665 53.2001 13.7665 53.4826C13.7665 53.765 13.8689 54.006 14.0739 54.2053C14.2732 54.3992 14.5502 54.4961 14.9046 54.4961C15.2591 54.4961 15.5415 54.3992 15.752 54.2053C15.9569 54.006 16.0594 53.765 16.0594 53.4826C16.0594 53.2001 15.9569 52.962 15.752 52.7681C15.5471 52.5687 15.2674 52.469 14.9129 52.469ZM12.1132 49.3062C12.1132 49.5554 12.0412 49.7604 11.8972 49.921C11.7477 50.0761 11.5649 50.1536 11.3489 50.1536C11.1274 50.1536 10.9446 50.0761 10.8006 49.921C10.6511 49.7604 10.5763 49.5554 10.5763 49.3062C10.5763 49.0625 10.6511 48.8631 10.8006 48.7081C10.9446 48.5474 11.1274 48.4671 11.3489 48.4671C11.5649 48.4671 11.7477 48.5474 11.8972 48.7081C12.0412 48.8631 12.1132 49.0625 12.1132 49.3062ZM12.5951 48.6001L17.2308 48.6001L17.2308 50.0207L12.5951 50.0207L12.5951 48.6001ZM17.2972 45.6847C17.2972 46.089 17.228 46.449 17.0895 46.7647C16.9511 47.0804 16.7628 47.3296 16.5246 47.5124C16.2809 47.6952 16.0095 47.7976 15.7105 47.8198L15.7105 46.4158C15.8711 46.3992 16.0012 46.3244 16.1009 46.1915C16.2006 46.0585 16.2505 45.8952 16.2505 45.7013C16.2505 45.5241 16.2172 45.3884 16.1508 45.2942C16.0788 45.1945 15.9874 45.1447 15.8766 45.1447C15.7437 45.1447 15.6468 45.2139 15.5858 45.3524C15.5194 45.4909 15.4474 45.7152 15.3698 46.0253C15.2923 46.3576 15.212 46.6345 15.1289 46.8561C15.0403 47.0776 14.9046 47.2687 14.7218 47.4293C14.5335 47.5899 14.2815 47.6702 13.9658 47.6702C13.7 47.6702 13.4591 47.5982 13.2431 47.4542C13.0215 47.3047 12.8471 47.0887 12.7197 46.8062C12.5923 46.5182 12.5286 46.1776 12.5286 45.7844C12.5286 45.2029 12.6726 44.7459 12.9606 44.4136C13.2486 44.0758 13.6308 43.8819 14.1071 43.8321L14.1071 45.1447C13.9465 45.1669 13.8191 45.2389 13.7249 45.3607C13.6308 45.477 13.5837 45.6321 13.5837 45.8259C13.5837 45.9921 13.6169 46.1195 13.6834 46.2081C13.7443 46.2967 13.8302 46.341 13.9409 46.341C14.0738 46.341 14.1735 46.2718 14.24 46.1333C14.3065 45.9893 14.3729 45.7678 14.4394 45.4687C14.528 45.1253 14.6166 44.8456 14.7052 44.6296C14.7883 44.4136 14.9268 44.2253 15.1206 44.0647C15.3089 43.8985 15.5637 43.8127 15.8849 43.8072C16.1563 43.8072 16.4 43.8847 16.616 44.0398C16.8265 44.1893 16.9926 44.4081 17.1145 44.6961C17.2363 44.9785 17.2972 45.3081 17.2972 45.6847ZM16.0262 40.3543L17.2308 40.3543L17.2308 41.0771C17.2308 41.5922 17.1062 41.9937 16.8569 42.2817C16.6022 42.5697 16.1895 42.7137 15.6191 42.7137L13.7748 42.7137L13.7748 43.2787L12.5951 43.2787L12.5951 42.7137L11.4652 42.7137L11.4652 41.2931L12.5951 41.2931L12.5951 40.3627L13.7748 40.3627L13.7748 41.2931L15.6357 41.2931C15.7742 41.2931 15.8738 41.2599 15.9348 41.1934C15.9957 41.127 16.0262 41.0162 16.0262 40.8611L16.0262 40.3543ZM12.1132 38.8486C12.1132 39.0978 12.0412 39.3027 11.8972 39.4633C11.7477 39.6184 11.5649 39.696 11.3489 39.696C11.1274 39.696 10.9446 39.6184 10.8006 39.4633C10.6511 39.3027 10.5763 39.0978 10.5763 38.8486C10.5763 38.6049 10.6511 38.4055 10.8006 38.2504C10.9446 38.0898 11.1274 38.0095 11.3489 38.0095C11.5649 38.0095 11.7477 38.0898 11.8972 38.2504C12.0412 38.4055 12.1132 38.6049 12.1132 38.8486ZM12.5951 38.1424L17.2308 38.1424L17.2308 39.563L12.5951 39.563L12.5951 38.1424ZM14.9129 37.3954C14.4311 37.3954 14.0102 37.2985 13.6502 37.1046C13.2902 36.9052 13.0132 36.6311 12.8194 36.2821C12.6255 35.9277 12.5286 35.5234 12.5286 35.0692C12.5286 34.4877 12.6809 34.0031 12.9855 33.6154C13.2902 33.2221 13.7194 32.9646 14.2732 32.8428L14.2732 34.3548C13.9188 34.4821 13.7415 34.7286 13.7415 35.0941C13.7415 35.3545 13.844 35.5621 14.0489 35.7172C14.2483 35.8723 14.5363 35.9498 14.9129 35.9498C15.2895 35.9498 15.5803 35.8723 15.7852 35.7172C15.9846 35.5621 16.0843 35.3545 16.0843 35.0941C16.0843 34.7286 15.9071 34.4821 15.5526 34.3548L15.5526 32.8428C16.0954 32.9646 16.5218 33.2221 16.832 33.6154C17.1422 34.0086 17.2972 34.4932 17.2972 35.0692C17.2972 35.5234 17.2003 35.9277 17.0065 36.2821C16.8126 36.6311 16.5357 36.9052 16.1757 37.1046C15.8157 37.2985 15.3948 37.3954 14.9129 37.3954ZM17.2972 30.197C17.2972 30.6013 17.228 30.9613 17.0895 31.277C16.9511 31.5927 16.7628 31.8419 16.5246 32.0247C16.2809 32.2075 16.0095 32.3099 15.7105 32.3321L15.7105 30.9281C15.8711 30.9115 16.0012 30.8367 16.1009 30.7038C16.2006 30.5709 16.2505 30.4075 16.2505 30.2136C16.2505 30.0364 16.2172 29.9007 16.1508 29.8066C16.0788 29.7069 15.9874 29.657 15.8766 29.657C15.7437 29.657 15.6468 29.7262 15.5858 29.8647C15.5194 30.0032 15.4474 30.2275 15.3698 30.5376C15.2923 30.8699 15.212 31.1469 15.1289 31.3684C15.0403 31.5899 14.9046 31.781 14.7218 31.9416C14.5335 32.1022 14.2815 32.1826 13.9658 32.1826C13.7 32.1826 13.4591 32.1106 13.2431 31.9666C13.0215 31.817 12.8471 31.601 12.7197 31.3186C12.5923 31.0306 12.5286 30.6899 12.5286 30.2967C12.5286 29.7152 12.6726 29.2582 12.9606 28.9259C13.2486 28.5881 13.6308 28.3942 14.1071 28.3444L14.1071 29.657C13.9465 29.6792 13.8191 29.7512 13.7249 29.873C13.6308 29.9893 13.5837 30.1444 13.5837 30.3382C13.5837 30.5044 13.6169 30.6318 13.6834 30.7204C13.7443 30.809 13.8302 30.8533 13.9409 30.8533C14.0738 30.8533 14.1735 30.7841 14.24 30.6456C14.3065 30.5016 14.3729 30.2801 14.4394 29.981C14.528 29.6376 14.6166 29.3579 14.7052 29.1419C14.7883 28.9259 14.9268 28.7376 15.1206 28.577C15.3089 28.4109 15.5637 28.325 15.8849 28.3195C16.1563 28.3195 16.4 28.397 16.616 28.5521C16.8265 28.7016 16.9926 28.9204 17.1145 29.2084C17.2363 29.4909 17.2972 29.8204 17.2972 30.197ZM12.5286 23.9286C12.5286 23.6018 12.5951 23.3166 12.728 23.0729C12.8609 22.8237 13.0354 22.6326 13.2514 22.4997L12.5951 22.4997L12.5951 21.0791L17.2225 21.0791C17.6489 21.0791 18.0338 21.1649 18.3772 21.3366C18.7262 21.5028 19.0031 21.7603 19.208 22.1092C19.4129 22.4526 19.5154 22.8818 19.5154 23.3969C19.5154 24.0837 19.352 24.6403 19.0252 25.0668C18.704 25.4932 18.2665 25.7369 17.7126 25.7978L17.7126 24.3938C17.8898 24.3495 18.0283 24.2443 18.128 24.0781C18.2332 23.912 18.2858 23.7071 18.2858 23.4634C18.2858 23.1698 18.2 22.9372 18.0283 22.7655C17.8622 22.5883 17.5935 22.4997 17.2225 22.4997L16.5662 22.4997C16.7822 22.6381 16.9594 22.8292 17.0978 23.0729C17.2308 23.3166 17.2972 23.6018 17.2972 23.9286C17.2972 24.3108 17.2003 24.6569 17.0065 24.9671C16.8071 25.2772 16.5274 25.5237 16.1674 25.7065C15.8018 25.8837 15.3809 25.9723 14.9046 25.9723C14.4283 25.9723 14.0102 25.8837 13.6502 25.7065C13.2902 25.5237 13.0132 25.2772 12.8194 24.9671C12.6255 24.6569 12.5286 24.3108 12.5286 23.9286ZM14.9129 22.4997C14.5585 22.4997 14.2788 22.5994 14.0738 22.7988C13.8689 22.9926 13.7665 23.2308 13.7665 23.5132C13.7665 23.7957 13.8689 24.0366 14.0738 24.236C14.2732 24.4298 14.5502 24.5268 14.9046 24.5268C15.2591 24.5268 15.5415 24.4298 15.752 24.236C15.9569 24.0366 16.0594 23.7957 16.0594 23.5132C16.0594 23.2308 15.9569 22.9926 15.752 22.7988C15.5471 22.5994 15.2674 22.4997 14.9129 22.4997ZM13.3677 18.6307C13.1129 18.4645 12.9135 18.2569 12.7695 18.0076C12.62 17.7584 12.5452 17.4815 12.5452 17.1769L14.0489 17.1769L14.0489 17.5673C14.0489 17.9218 14.1265 18.1876 14.2815 18.3649C14.4311 18.5421 14.6969 18.6307 15.0791 18.6307L17.2308 18.6307L17.2308 20.0513L12.5951 20.0513L12.5951 18.6307L13.3677 18.6307ZM17.2972 14.3877C17.2972 14.8418 17.2003 15.2517 17.0065 15.6172C16.8126 15.9772 16.5357 16.2624 16.1757 16.4729C15.8157 16.6778 15.3948 16.7803 14.9129 16.7803C14.4366 16.7803 14.0185 16.6751 13.6585 16.4646C13.2929 16.2541 13.0132 15.9661 12.8194 15.6006C12.6255 15.2351 12.5286 14.8252 12.5286 14.3711C12.5286 13.9169 12.6255 13.5071 12.8194 13.1415C13.0132 12.776 13.2929 12.488 13.6585 12.2775C14.0185 12.0671 14.4366 11.9618 14.9129 11.9618C15.3892 11.9618 15.8102 12.0698 16.1757 12.2858C16.5357 12.4963 16.8126 12.7871 17.0065 13.1581C17.2003 13.5237 17.2972 13.9335 17.2972 14.3877ZM16.0677 14.3877C16.0677 14.1163 15.968 13.8864 15.7686 13.6981C15.5692 13.5043 15.284 13.4074 14.9129 13.4074C14.5418 13.4074 14.2566 13.5015 14.0572 13.6898C13.8578 13.8726 13.7582 14.0997 13.7582 14.3711C13.7582 14.648 13.8578 14.8778 14.0572 15.0606C14.2511 15.2434 14.5363 15.3348 14.9129 15.3348C15.284 15.3348 15.5692 15.2461 15.7686 15.0689C15.968 14.8861 16.0677 14.6591 16.0677 14.3877ZM12.5951 6.63063L17.2308 6.63063L17.2308 8.05124L16.5994 8.05124C16.8043 8.19524 16.9705 8.39186 17.0978 8.64109C17.2197 8.88478 17.2806 9.15617 17.2806 9.45524C17.2806 9.8097 17.2031 10.1226 17.048 10.394C16.8874 10.6654 16.6575 10.8759 16.3585 11.0254C16.0594 11.1749 15.7077 11.2497 15.3034 11.2497L12.5951 11.2497L12.5951 9.8374L15.1123 9.8374C15.4225 9.8374 15.6634 9.75709 15.8351 9.59647C16.0068 9.43586 16.0926 9.21986 16.0926 8.94847C16.0926 8.67155 16.0068 8.45278 15.8351 8.29217C15.6634 8.13155 15.4225 8.05124 15.1123 8.05124L12.5951 8.05124L12.5951 6.63063ZM13.2514 4.18959C13.0354 4.05113 12.8609 3.86006 12.728 3.61636C12.5951 3.37267 12.5286 3.08744 12.5286 2.76067C12.5286 2.37852 12.6255 2.03236 12.8194 1.72221C13.0132 1.41205 13.2902 1.16836 13.6502 0.991132C14.0102 0.808363 14.4283 0.716978 14.9046 0.716978C15.3809 0.716978 15.8018 0.808362 16.1674 0.991132C16.5274 1.16836 16.8071 1.41205 17.0065 1.72221C17.2003 2.03236 17.2972 2.37852 17.2972 2.76067C17.2972 3.0819 17.2308 3.36713 17.0978 3.61636C16.9649 3.86005 16.7932 4.05113 16.5828 4.18959L19.4406 4.18959L19.4406 5.61021L12.5951 5.61021L12.5951 4.18959L13.2514 4.18959ZM14.9046 2.16252C14.5502 2.16252 14.2732 2.26221 14.0738 2.46159C13.8689 2.65544 13.7665 2.89636 13.7665 3.18436C13.7665 3.46682 13.8689 3.70775 14.0738 3.90713C14.2788 4.10098 14.5585 4.1979 14.9129 4.1979C15.2674 4.1979 15.5471 4.10098 15.752 3.90713C15.9569 3.70775 16.0594 3.46682 16.0594 3.18436C16.0594 2.9019 15.9569 2.66098 15.752 2.46159C15.5415 2.26221 15.2591 2.16252 14.9046 2.16252Z" fill="#FCFCFC"/>
<path d="M48 491.168L38.64 497.648L38.64 498.032L38.64 504.8L48 504.8L48 512.576L14.4 512.576L14.4 498.032C14.4 495.056 14.896 492.48 15.888 490.304C16.88 488.096 18.288 486.4 20.112 485.216C21.936 484.032 24.096 483.44 26.592 483.44C29.088 483.44 31.248 484.048 33.072 485.264C34.864 486.448 36.24 488.144 37.2 490.352L48 482.816L48 491.168ZM26.592 491.312C24.704 491.312 23.264 491.92 22.272 493.136C21.248 494.352 20.736 496.128 20.736 498.464L20.736 504.8L32.448 504.8L32.448 498.464C32.448 496.128 31.936 494.352 30.912 493.136C29.888 491.92 28.448 491.312 26.592 491.312ZM41.76 451.263L48 451.263L48 477.279L14.4 477.279L14.4 451.887L20.64 451.887L20.64 469.551L27.936 469.551L27.936 453.951L33.984 453.951L33.984 469.551L41.76 469.551L41.76 451.263ZM30.672 422.466L30.672 415.362L44.304 415.362C45.68 417.186 46.736 419.298 47.472 421.698C48.208 424.098 48.576 426.514 48.576 428.946C48.576 432.434 47.84 435.57 46.368 438.354C44.864 441.138 42.8 443.33 40.176 444.93C37.52 446.498 34.528 447.282 31.2 447.282C27.872 447.282 24.896 446.498 22.272 444.93C19.616 443.33 17.552 441.122 16.08 438.306C14.576 435.49 13.824 432.322 13.824 428.802C13.824 425.858 14.32 423.186 15.312 420.786C16.304 418.386 17.744 416.37 19.632 414.738L24.24 419.73C21.712 422.13 20.448 425.026 20.448 428.418C20.448 430.562 20.896 432.466 21.792 434.13C22.688 435.794 23.952 437.09 25.584 438.018C27.216 438.946 29.088 439.41 31.2 439.41C33.28 439.41 35.136 438.946 36.768 438.018C38.4 437.09 39.68 435.81 40.608 434.178C41.504 432.514 41.952 430.626 41.952 428.514C41.952 426.274 41.472 424.258 40.512 422.466L30.672 422.466ZM14.4 408.139L14.4 400.363L48 400.363L48 408.139L14.4 408.139ZM48.576 376.117C48.576 379.605 47.824 382.757 46.32 385.573C44.816 388.357 42.752 390.549 40.128 392.149C37.472 393.717 34.496 394.501 31.2 394.501C27.904 394.501 24.944 393.717 22.32 392.149C19.664 390.549 17.584 388.357 16.08 385.573C14.576 382.757 13.824 379.605 13.824 376.117C13.824 372.629 14.576 369.493 16.08 366.709C17.584 363.925 19.664 361.733 22.32 360.133C24.944 358.533 27.904 357.733 31.2 357.733C34.496 357.733 37.472 358.533 40.128 360.133C42.752 361.733 44.816 363.925 46.32 366.709C47.824 369.493 48.576 372.629 48.576 376.117ZM41.952 376.117C41.952 374.133 41.504 372.341 40.608 370.741C39.68 369.141 38.4 367.893 36.768 366.997C35.136 366.069 33.28 365.605 31.2 365.605C29.12 365.605 27.264 366.069 25.632 366.997C24 367.893 22.736 369.141 21.84 370.741C20.912 372.341 20.448 374.133 20.448 376.117C20.448 378.101 20.912 379.893 21.84 381.493C22.736 383.093 24 384.357 25.632 385.285C27.264 386.181 29.12 386.629 31.2 386.629C33.28 386.629 35.136 386.181 36.768 385.285C38.4 384.357 39.68 383.093 40.608 381.493C41.504 379.893 41.952 378.101 41.952 376.117ZM14.4 321.073L48 321.073L48 327.457L27.6 344.209L48 344.209L48 351.889L14.4 351.889L14.4 345.457L34.8 328.753L14.4 328.753L14.4 321.073ZM30.672 290.419L30.672 283.315L44.304 283.315C45.68 285.139 46.736 287.251 47.472 289.651C48.208 292.051 48.576 294.467 48.576 296.899C48.576 300.387 47.84 303.523 46.368 306.307C44.864 309.091 42.8 311.283 40.176 312.883C37.52 314.451 34.528 315.235 31.2 315.235C27.872 315.235 24.896 314.451 22.272 312.883C19.616 311.283 17.552 309.075 16.08 306.259C14.576 303.443 13.824 300.275 13.824 296.755C13.824 293.811 14.32 291.139 15.312 288.739C16.304 286.339 17.744 284.323 19.632 282.691L24.24 287.683C21.712 290.083 20.448 292.979 20.448 296.371C20.448 298.515 20.896 300.419 21.792 302.083C22.688 303.747 23.952 305.043 25.584 305.971C27.216 306.899 29.088 307.363 31.2 307.363C33.28 307.363 35.136 306.899 36.768 305.971C38.4 305.043 39.68 303.763 40.608 302.131C41.504 300.467 41.952 298.579 41.952 296.467C41.952 294.227 41.472 292.211 40.512 290.419L30.672 290.419ZM48 254.684L38.64 261.164L38.64 261.548L38.64 268.316L48 268.316L48 276.092L14.4 276.092L14.4 261.548C14.4 258.572 14.896 255.996 15.888 253.82C16.88 251.612 18.288 249.916 20.112 248.732C21.936 247.548 24.096 246.956 26.592 246.956C29.088 246.956 31.248 247.564 33.072 248.78C34.864 249.964 36.24 251.66 37.2 253.868L48 246.332L48 254.684ZM26.592 254.828C24.704 254.828 23.264 255.436 22.272 256.652C21.248 257.868 20.736 259.644 20.736 261.98L20.736 268.316L32.448 268.316L32.448 261.98C32.448 259.644 31.936 257.868 30.912 256.652C29.888 255.436 28.448 254.828 26.592 254.828ZM48.576 225.867C48.576 230.667 47.248 234.411 44.592 237.099C41.936 239.755 38.144 241.083 33.216 241.083L14.4 241.083L14.4 233.307L32.928 233.307C38.944 233.307 41.952 230.811 41.952 225.819C41.952 223.387 41.232 221.531 39.792 220.251C38.32 218.971 36.032 218.331 32.928 218.331L14.4 218.331L14.4 210.651L33.216 210.651C38.144 210.651 41.936 211.995 44.592 214.683C47.248 217.339 48.576 221.067 48.576 225.867ZM41.664 175.751L48 175.751L48 205.127L42.96 205.127L20.736 186.695L20.736 204.743L14.4 204.743L14.4 176.471L19.44 176.471L41.664 194.855L41.664 175.751Z" fill="white"/>
</svg>
